<?xml version="1.0" encoding="UTF-8"?>
<svg version="1.1" xmlns="http://www.w3.org/2000/svg" width="247" height="245">
<path d="M0 0 C21.72463563 18.39093196 36.28652786 43.79021704 41.90917969 71.61621094 C42.08433105 72.44805908 42.25948242 73.27990723 42.43994141 74.13696289 C48.43014422 104.3059493 40.8425788 137.10531966 23.90917969 162.61621094 C8.36266332 184.92794373 -12.09458748 201.74506712 -37.77832031 210.99121094 C-38.40577148 211.21776367 -39.03322266 211.44431641 -39.6796875 211.67773438 C-41.80191969 212.39448623 -43.93173762 213.01889624 -46.09082031 213.61621094 C-47.06059814 213.88473877 -48.03037598 214.1532666 -49.02954102 214.42993164 C-58.49130358 216.75960819 -67.59771543 217.11068623 -77.30297852 217.06225586 C-79.88997389 217.05375479 -82.47474478 217.08260701 -85.06152344 217.11425781 C-99.67696084 217.17732288 -113.2669994 214.90647678 -126.71582031 208.92871094 C-127.50230957 208.58622314 -128.28879883 208.24373535 -129.09912109 207.89086914 C-144.50905164 200.99957813 -157.28666337 191.66668255 -169.09082031 179.61621094 C-169.88101563 178.81183594 -170.67121094 178.00746094 -171.48535156 177.17871094 C-192.49258914 154.91579034 -203.86739271 123.30926645 -203.63354492 92.78491211 C-202.3498183 56.62940532 -186.25462212 25.45477587 -160.27832031 0.92871094 C-145.64830794 -11.83511088 -127.74609023 -20.43589943 -109.09082031 -25.38378906 C-107.98351562 -25.70347656 -106.87621094 -26.02316406 -105.73535156 -26.35253906 C-68.73474114 -35.5494687 -28.94450032 -23.57424889 0 0 Z M-148.04296875 25.11914062 C-165.98323267 42.51480809 -176.93149613 66.40188132 -177.33251953 91.52929688 C-177.3970956 111.16801903 -173.39006378 131.09462806 -162.09082031 147.61621094 C-161.10082031 148.27621094 -160.11082031 148.93621094 -159.09082031 149.61621094 C-158.2078125 148.7821875 -157.32480469 147.94816406 -156.41503906 147.08886719 C-150.07209256 141.12985692 -143.6764419 135.37587911 -136.87988281 129.93261719 C-132.45347868 126.25634597 -128.28280919 122.31194722 -124.07519531 118.38964844 C-119.46933805 114.09639294 -114.70981961 109.99291672 -109.91503906 105.91308594 C-108.72336346 104.897777 -107.53196622 103.88214126 -106.34082031 102.86621094 C-105.7372168 102.35147217 -105.13361328 101.8367334 -104.51171875 101.30639648 C-100.56616078 97.92531634 -96.70973375 94.46524572 -92.90332031 90.92871094 C-89.25668656 87.5409672 -85.5346463 84.29723298 -81.65332031 81.17871094 C-76.23669583 76.81879788 -71.17143735 72.14145215 -66.09082031 67.40136719 C-63.12862791 64.63954753 -60.10060691 61.9631866 -57.03613281 59.31542969 C-54.75416741 57.32214666 -52.51853457 55.28128066 -50.27832031 53.24121094 C-46.85852703 50.14984293 -43.37123507 47.19162062 -39.77832031 44.30371094 C-34.88671449 40.35012612 -30.2613913 36.17050745 -25.68139648 31.86499023 C-22.25103763 28.64676274 -18.72998739 25.59717291 -15.09082031 22.61621094 C-24.77720186 9.21514909 -46.36497842 0.82964605 -62.19824219 -1.72363281 C-94.52693414 -6.51506259 -124.13667693 2.71831791 -148.04296875 25.11914062 Z M-0.09082031 39.61621094 C-0.82945312 40.30585937 -1.56808594 40.99550781 -2.32910156 41.70605469 C-7.26292306 46.28546799 -12.20707103 50.78264408 -17.46582031 54.99121094 C-22.50418225 59.04222817 -27.19386791 63.38844651 -31.89672852 67.81665039 C-36.20945163 71.85551234 -40.68911672 75.60560983 -45.30175781 79.29980469 C-49.72816194 82.9760759 -53.89883144 86.92047466 -58.10644531 90.84277344 C-62.72435792 95.14726608 -67.49843638 99.25933499 -72.30175781 103.35449219 C-78.84737462 108.93940027 -85.31121538 114.58175054 -91.65722656 120.39355469 C-96.12788531 124.47670851 -100.70223921 128.43463472 -105.30957031 132.36230469 C-111.84697813 137.93835553 -118.30316918 143.57128074 -124.63769531 149.37792969 C-127.42315026 151.91943555 -130.25302809 154.40426085 -133.09863281 156.87792969 C-136.78714482 160.09633722 -140.43631563 163.35930283 -144.09082031 166.61621094 C-141.12163275 170.75994198 -137.81313547 173.454096 -133.52832031 176.11621094 C-132.90554199 176.50711914 -132.28276367 176.89802734 -131.64111328 177.30078125 C-109.91926184 190.69119236 -84.157674 195.06018434 -59.02832031 190.49121094 C-31.91078054 183.8794063 -10.45427711 168.61183053 4.21777344 144.61230469 C16.96775422 122.02746575 21.96498212 96.03185543 15.45703125 70.56933594 C12.47517897 59.93884653 8.27834455 49.6939124 1.90917969 40.61621094 C0.91917969 40.12121094 0.91917969 40.12121094 -0.09082031 39.61621094 Z " fill="#FDDE5D" transform="translate(203.0908203125,28.3837890625)"/>
<path d="M0 0 C0 0.33 0 0.66 0 1 C-5.38497217 0.654504 -10.40616157 -0.04062864 -15.60253906 -1.5246582 C-21.86280076 -3.12412199 -27.6747511 -3.38953521 -34.109375 -3.29296875 C-35.20219788 -3.28872391 -36.29502075 -3.28447906 -37.42095947 -3.28010559 C-40.86423849 -3.26349769 -44.30690203 -3.22588002 -47.75 -3.1875 C-50.10415813 -3.17243002 -52.45832556 -3.1587457 -54.8125 -3.14648438 C-60.54187177 -3.11365314 -66.27089189 -3.06363645 -72 -3 C-72 -3.33 -72 -3.66 -72 -4 C-48.46581478 -10.72405292 -22.82768257 -7.97205162 0 0 Z " fill="#F9E78E" transform="translate(166,7)"/>
<path d="M0 0 C9.44239338 14.16359006 7.76235566 39.43745808 4.71875 55.30078125 C0.89780661 73.10219339 0.89780661 73.10219339 -2 76 C-2.02689216 74.52093108 -2.04634621 73.04172517 -2.0625 71.5625 C-2.07410156 70.73878906 -2.08570313 69.91507812 -2.09765625 69.06640625 C-2 67 -2 67 -1 66 C-0.92820036 64.48071962 -0.91607993 62.95832518 -0.9375 61.4375 C-0.94652344 60.61121094 -0.95554688 59.78492188 -0.96484375 58.93359375 C-0.97644531 58.29550781 -0.98804688 57.65742188 -1 57 C0.485 56.505 0.485 56.505 2 56 C1.979375 55.195625 1.95875 54.39125 1.9375 53.5625 C2 51 2 51 3 50 C5.16431569 37.73554443 5.75963528 20.51927057 0 9 C-0.06950541 7.45976004 -0.08452357 5.91665012 -0.0625 4.375 C-0.05347656 3.55773437 -0.04445312 2.74046875 -0.03515625 1.8984375 C-0.02355469 1.27195312 -0.01195312 0.64546875 0 0 Z " fill="#FAE792" transform="translate(241,88)"/>
<path d="M0 0 C0.33 0.66 0.66 1.32 1 2 C-3.15959004 7.71943631 -8.35065283 12.26773454 -14.25 16.125 C-17.12877255 17.87799736 -17.12877255 17.87799736 -19.0625 20.6875 C-21 23 -21 23 -23.75 23.8125 C-24.4925 23.874375 -25.235 23.93625 -26 24 C-22.11689429 19.02477081 -17.81971667 15.05710327 -13 11 C-11.8642821 10.03681341 -10.72888937 9.07324334 -9.59375 8.109375 C-6.40063764 5.40052819 -3.20155005 2.69886765 0 0 Z " fill="#F9E793" transform="translate(103,125)"/>
<path d="M0 0 C0.33 0.99 0.66 1.98 1 3 C0.38125 3.2475 -0.2375 3.495 -0.875 3.75 C-3.40244047 5.23672969 -3.87410174 6.34609695 -5 9 C-7.13552597 12.20328895 -8.73232126 13.12108473 -12 15 C-12.66 15.66 -13.32 16.32 -14 17 C-14.763125 17.268125 -15.52625 17.53625 -16.3125 17.8125 C-19.63452974 19.28037361 -21.55859494 21.34933165 -24 24 C-24.66 23.67 -25.32 23.34 -26 23 C-21.25001927 17.95821158 -16.12627106 13.56447311 -10.734375 9.22265625 C-7.07020882 6.2442126 -3.52488152 3.14108353 0 0 Z " fill="#FAE88D" transform="translate(177,60)"/>
<path d="M0 0 C30.45507585 -0.26195315 30.45507585 -0.26195315 38 3 C38 3.66 38 4.32 38 5 C36.88238281 4.85691406 35.76476562 4.71382812 34.61328125 4.56640625 C16.86168274 2.30132432 16.86168274 2.30132432 -1 2 C-0.67 1.34 -0.34 0.68 0 0 Z " fill="#F9E896" transform="translate(113,24)"/>
<path d="M0 0 C0 0.33 0 0.66 0 1 C-0.90878906 1.14695312 -1.81757812 1.29390625 -2.75390625 1.4453125 C-11.23047438 2.95805389 -18.74139306 5.21864003 -26.66015625 8.59765625 C-29.7395484 9.89064079 -32.81884553 10.98803457 -36 12 C-35.375 10.0625 -35.375 10.0625 -34 8 C-30.875 7.25 -30.875 7.25 -28 7 C-28 6.34 -28 5.68 -28 5 C-25.01163257 3.96237242 -22.01173353 2.96772002 -19 2 C-18.34257813 1.78730469 -17.68515625 1.57460938 -17.0078125 1.35546875 C-11.3512585 -0.27577815 -5.85201792 -0.19363295 0 0 Z " fill="#F7E68E" transform="translate(111,26)"/>
<path d="M0 0 C7.92 0 15.84 0 24 0 C24 0.99 24 1.98 24 3 C20.93744039 3.0270491 17.8751214 3.04686298 14.8125 3.0625 C13.51602539 3.07506836 13.51602539 3.07506836 12.19335938 3.08789062 C7.99713231 3.10396812 4.09063114 3.07559038 0 2 C0 1.34 0 0.68 0 0 Z " fill="#F9E793" transform="translate(112,220)"/>
<path d="M0 0 C2 3 2 3 2 5 C2.66 5 3.32 5 4 5 C4.27714844 5.85464844 4.55429688 6.70929688 4.83984375 7.58984375 C5.20207031 8.69457031 5.56429688 9.79929688 5.9375 10.9375 C6.29714844 12.03964844 6.65679688 13.14179688 7.02734375 14.27734375 C7.73856668 16.88123475 7.73856668 16.88123475 9 18 C9.04063832 19.66617115 9.042721 21.33388095 9 23 C9.99 23.33 10.98 23.66 12 24 C12.33 25.98 12.66 27.96 13 30 C13.66 30 14.32 30 15 30 C14.67 31.32 14.34 32.64 14 34 C9.55108319 27.5962561 6.52492854 20.8333197 3.625 13.625 C3.26728516 12.74489258 2.90957031 11.86478516 2.54101562 10.95800781 C2.21037109 10.11850586 1.87972656 9.27900391 1.5390625 8.4140625 C1.24209473 7.6607666 0.94512695 6.9074707 0.63916016 6.13134766 C0 4 0 4 0 0 Z " fill="#FAEAA0" transform="translate(5,155)"/>
<path d="M0 0 C8.58872212 12.88308318 6.47175688 33.30295879 6 48 C5.67 48 5.34 48 5 48 C4.94392578 46.13021484 4.94392578 46.13021484 4.88671875 44.22265625 C4.7585099 26.15443908 4.7585099 26.15443908 0 9 C-0.06950541 7.45976004 -0.08452357 5.91665012 -0.0625 4.375 C-0.05347656 3.55773437 -0.04445312 2.74046875 -0.03515625 1.8984375 C-0.02355469 1.27195312 -0.01195312 0.64546875 0 0 Z " fill="#FCF2C3" transform="translate(241,88)"/>
<path d="M0 0 C1.47290222 4.41870667 -0.45062808 6.72393502 -2.39453125 10.796875 C-10.3539463 26.67697315 -10.3539463 26.67697315 -13 28 C-13.33 26.35 -13.66 24.7 -14 23 C-12.68 23 -11.36 23 -10 23 C-9.87625 22.29875 -9.7525 21.5975 -9.625 20.875 C-8.96161655 17.82343613 -8.02788045 14.94659062 -7 12 C-6.34 12 -5.68 12 -5 12 C-5 10.68 -5 9.36 -5 8 C-4.34 8 -3.68 8 -3 8 C-3 6.35 -3 4.7 -3 3 C-2.34 3 -1.68 3 -1 3 C-0.67 2.01 -0.34 1.02 0 0 Z " fill="#F9E896" transform="translate(238,164)"/>
<path d="M0 0 C0.33 0.66 0.66 1.32 1 2 C-0.37981562 3.82472349 -1.77950097 5.63443436 -3.1875 7.4375 C-3.96480469 8.44683594 -4.74210937 9.45617187 -5.54296875 10.49609375 C-8.14994237 13.15280295 -9.35590712 13.74756728 -13 14 C-13.33 15.32 -13.66 16.64 -14 18 C-18.75 19.125 -18.75 19.125 -21 18 C-20.28714844 17.49210937 -19.57429687 16.98421875 -18.83984375 16.4609375 C-8.37023397 9.33704472 -8.37023397 9.33704472 0 0 Z " fill="#FBEBA0" transform="translate(195,188)"/>
<path d="M0 0 C0.66 0 1.32 0 2 0 C1.86722656 0.86238281 1.73445313 1.72476563 1.59765625 2.61328125 C0.08598609 13.06256332 -0.56865924 23.45485354 -1 34 C-1.33 34 -1.66 34 -2 34 C-2.04953687 29.80079763 -2.08578411 25.60175131 -2.10986328 21.40234375 C-2.11990427 19.97457922 -2.13353981 18.54683517 -2.15087891 17.11914062 C-2.17521152 15.06375059 -2.18650202 13.00863308 -2.1953125 10.953125 C-2.20578613 9.71723633 -2.21625977 8.48134766 -2.22705078 7.20800781 C-2.01298081 4.18340629 -1.59653159 2.53014349 0 0 Z " fill="#F9E78D" transform="translate(27,98)"/>
<path d="M0 0 C0.66 0.33 1.32 0.66 2 1 C-3.94 6.445 -3.94 6.445 -10 12 C-9.67 12.99 -9.34 13.98 -9 15 C-10.32 14.34 -11.64 13.68 -13 13 C-13 12.34 -13 11.68 -13 11 C-12.34 11 -11.68 11 -11 11 C-10.67 9.35 -10.34 7.7 -10 6 C-9.01 5.67 -8.02 5.34 -7 5 C-7 4.34 -7 3.68 -7 3 C-5.5459375 2.5359375 -5.5459375 2.5359375 -4.0625 2.0625 C-1.15934208 1.30476658 -1.15934208 1.30476658 0 0 Z " fill="#F9E68A" transform="translate(70,183)"/>
<path d="M0 0 C1.828125 0.0859375 1.828125 0.0859375 4 1 C5.484375 3.9140625 5.484375 3.9140625 6.75 7.625 C7.39195312 9.43871094 7.39195312 9.43871094 8.046875 11.2890625 C9.00616348 15.02399715 9.17755534 18.16283184 9 22 C6.78593433 18.6789015 5.3915169 15.25237744 3.9375 11.5625 C3.66873047 10.89412109 3.39996094 10.22574219 3.12304688 9.53710938 C1.87423648 6.39484084 0.68712339 3.31685487 0 0 Z " fill="#F7E996" transform="translate(209,75)"/>
<path d="M0 0 C0.78375 0.04125 1.5675 0.0825 2.375 0.125 C-1.63308771 5.42601923 -6.28768841 9.19469212 -11.625 13.125 C-12.285 12.795 -12.945 12.465 -13.625 12.125 C-13.625 11.465 -13.625 10.805 -13.625 10.125 C-12.305 9.795 -10.985 9.465 -9.625 9.125 C-9.625 8.135 -9.625 7.145 -9.625 6.125 C-8.305 6.125 -6.985 6.125 -5.625 6.125 C-5.50125 5.50625 -5.3775 4.8875 -5.25 4.25 C-4.29660357 1.00845214 -3.38899251 0.1613806 0 0 Z " fill="#FAE88E" transform="translate(206.625,210.875)"/>
<path d="M0 0 C5.28 0 10.56 0 16 0 C12.65981067 2.22679289 10.1613935 2.79403872 6.25 3.625 C5.05890625 3.88539063 3.8678125 4.14578125 2.640625 4.4140625 C-0.97524624 4.99601603 -4.34480192 5.10309533 -8 5 C-8 4.67 -8 4.34 -8 4 C-5.36 3.67 -2.72 3.34 0 3 C0 2.01 0 1.02 0 0 Z " fill="#F9E88F" transform="translate(144,240)"/>
<path d="M0 0 C0.66 0 1.32 0 2 0 C3.35273529 5.90931732 2.96097427 11.68230476 2.6875 17.6875 C2.65205078 18.73228516 2.61660156 19.77707031 2.58007812 20.85351562 C2.53689453 21.85447266 2.49371094 22.85542969 2.44921875 23.88671875 C2.41143311 24.79639404 2.37364746 25.70606934 2.3347168 26.64331055 C2 29 2 29 0 32 C0 21.44 0 10.88 0 0 Z " fill="#FBEBA7" transform="translate(220,106)"/>
<path d="M0 0 C1.03218914 3.74891097 1.21656848 7.10176743 1 11 C0.34 11.66 -0.32 12.32 -1 13 C-1.70710678 14.64991582 -2.37943989 16.31562256 -3 18 C-3.66 18 -4.32 18 -5 18 C-5 18.66 -5 19.32 -5 20 C-5.66 20 -6.32 20 -7 20 C-5.52404517 15.51695963 -3.96771452 11.06783525 -2.375 6.625 C-2.03082031 5.66400391 -2.03082031 5.66400391 -1.6796875 4.68359375 C-1.12037724 3.12218595 -0.56027192 1.56106299 0 0 Z " fill="#FBEA9D" transform="translate(217,148)"/>
<path d="M0 0 C0.66 0.33 1.32 0.66 2 1 C-1.97569758 7.57519215 -6.32727317 11.99047631 -14 14 C-9.72706118 8.76564995 -5.18419194 4.32893185 0 0 Z " fill="#FAEA98" transform="translate(66,157)"/>
<path d="M0 0 C0.66 0.33 1.32 0.66 2 1 C1.67 1.99 1.34 2.98 1 4 C0.34 4 -0.32 4 -1 4 C-1 4.66 -1 5.32 -1 6 C-1.99 6 -2.98 6 -4 6 C-4.33 6.99 -4.66 7.98 -5 9 C-7.0625 9.6875 -7.0625 9.6875 -9 10 C-10.42944945 7.64561267 -11.08661261 6.51967567 -10.625 3.75 C-10.41875 3.1725 -10.2125 2.595 -10 2 C-8.68 3.32 -7.36 4.64 -6 6 C-4.02 4.02 -2.04 2.04 0 0 Z " fill="#F8E891" transform="translate(50,171)"/>
<path d="M0 0 C0.66 0.33 1.32 0.66 2 1 C1.49210937 1.54527344 0.98421875 2.09054688 0.4609375 2.65234375 C-4.2461771 7.80901424 -8.30392225 13.07787542 -12 19 C-12.33 18.34 -12.66 17.68 -13 17 C-12.505 15.515 -12.505 15.515 -12 14 C-11.34 14 -10.68 14 -10 14 C-9.7834375 13.071875 -9.7834375 13.071875 -9.5625 12.125 C-9 10 -9 10 -8 8 C-7.34 8 -6.68 8 -6 8 C-6.33 6.68 -6.66 5.36 -7 4 C-5.824375 3.566875 -5.824375 3.566875 -4.625 3.125 C-1.90328368 2.15087746 -1.90328368 2.15087746 0 0 Z " fill="#FAEAA0" transform="translate(51,56)"/>
<path d="M0 0 C5.60863663 2.8615493 9.87181343 6.21933409 14 11 C14 11.33 14 11.66 14 12 C12.35 12 10.7 12 9 12 C8.67 11.01 8.34 10.02 8 9 C7.01 8.67 6.02 8.34 5 8 C5 7.01 5 6.02 5 5 C4.34 5 3.68 5 3 5 C1.375 3.625 1.375 3.625 0 2 C0 1.34 0 0.68 0 0 Z " fill="#FAE791" transform="translate(196,24)"/>
<path d="M0 0 C7.7498635 0.52541447 14.6450086 2.55591476 22 5 C22 5.33 22 5.66 22 6 C14.40935336 5.51298949 7.32940833 4.00236413 0 2 C0 1.34 0 0.68 0 0 Z " fill="#F8E899" transform="translate(144,2)"/>
<path d="M0 0 C3.52146777 0.66106976 6.93145017 1.5133095 10.375 2.5 C14.59292075 3.67005921 18.65333763 4.51703751 23 5 C23 5.33 23 5.66 23 6 C14.84524526 6.433422 7.82316305 5.29370226 0 3 C0 2.01 0 1.02 0 0 Z " fill="#FAE99D" transform="translate(88,214)"/>
<path d="M0 0 C1.32 0.33 2.64 0.66 4 1 C1.90114686 2.98507793 -0.20363882 4.96310393 -2.3125 6.9375 C-3.20485352 7.78344727 -3.20485352 7.78344727 -4.11523438 8.64648438 C-4.69208984 9.18466797 -5.26894531 9.72285156 -5.86328125 10.27734375 C-6.39219971 10.77484131 -6.92111816 11.27233887 -7.46606445 11.78491211 C-9 13 -9 13 -12 14 C-12.33 13.01 -12.66 12.02 -13 11 C-12.360625 10.896875 -11.72125 10.79375 -11.0625 10.6875 C-10.0415625 10.3471875 -10.0415625 10.3471875 -9 10 C-8.67 9.01 -8.34 8.02 -8 7 C-7.34 7 -6.68 7 -6 7 C-6 6.34 -6 5.68 -6 5 C-4.02 4.01 -2.04 3.02 0 2 C0 1.34 0 0.68 0 0 Z " fill="#F9E993" transform="translate(85,168)"/>
<path d="M0 0 C0.66 0.33 1.32 0.66 2 1 C0.41925436 1.81752303 -1.16471223 2.62881997 -2.75 3.4375 C-3.63171875 3.88996094 -4.5134375 4.34242188 -5.421875 4.80859375 C-9.8498872 6.85487212 -13.37028244 7.11554041 -18.25 7.0625 C-19.32765625 7.05347656 -20.4053125 7.04445312 -21.515625 7.03515625 C-22.33546875 7.02355469 -23.1553125 7.01195312 -24 7 C-24 6.67 -24 6.34 -24 6 C-23.02160156 5.81824219 -22.04320312 5.63648438 -21.03515625 5.44921875 C-12.24834803 3.79644286 -12.24834803 3.79644286 -3.6875 1.25 C-2.470625 0.8375 -1.25375 0.425 0 0 Z " fill="#FAEEAF" transform="translate(160,213)"/>
<path d="M0 0 C5.94 0.99 5.94 0.99 12 2 C12.33 3.98 12.66 5.96 13 8 C8.27626146 6.37621488 4.05818166 3.89006982 0 1 C0 0.67 0 0.34 0 0 Z " fill="#FAE68F" transform="translate(54,224)"/>
<path d="M0 0 C0.66 0.33 1.32 0.66 2 1 C1.401875 1.556875 0.80375 2.11375 0.1875 2.6875 C-1.99212527 4.99167529 -3.41753938 7.26665892 -5 10 C-7 12 -7 12 -9.625 12.125 C-10.40875 12.08375 -11.1925 12.0425 -12 12 C-8.57833482 7.29521038 -4.42094803 3.72346836 0 0 Z " fill="#F9EA95" transform="translate(124,106)"/>
<path d="M0 0 C5.96652354 1.57013777 10.82909025 4.75029782 16 8 C15.67 8.66 15.34 9.32 15 10 C13.68 9.67 12.36 9.34 11 9 C11 8.34 11 7.68 11 7 C9.39125 6.5978125 9.39125 6.5978125 7.75 6.1875 C4.43839693 5.13882569 2.47133166 4.37247839 0 2 C0 1.34 0 0.68 0 0 Z " fill="#F9E89A" transform="translate(176,12)"/>
<path d="M0 0 C1.72880982 -0.05449838 3.45812712 -0.09301688 5.1875 -0.125 C6.15042969 -0.14820313 7.11335938 -0.17140625 8.10546875 -0.1953125 C11.15028356 0.01014059 13.23122942 0.76527799 16 2 C17.65919896 2.36871088 19.3247643 2.71281674 21 3 C21 3.33 21 3.66 21 4 C13.65081658 4.43230491 7.09784913 2.81774185 0 1 C0 0.67 0 0.34 0 0 Z " fill="#FAE894" transform="translate(90,241)"/>
<path d="M0 0 C0.66 0.33 1.32 0.66 2 1 C0.33333333 2.66666667 -1.33333333 4.33333333 -3 6 C-3.7115625 6.8353125 -3.7115625 6.8353125 -4.4375 7.6875 C-6.70285245 9.59039606 -9.1895553 10.18809375 -12 11 C-8.42270128 6.33867137 -4.89132699 3.26088466 0 0 Z " fill="#F8E894" transform="translate(55,20)"/>
<path d="M0 0 C0.99 0.33 1.98 0.66 3 1 C3 2.98 3 4.96 3 7 C1.73308493 7.67408308 0.46129251 8.33900497 -0.8125 9 C-1.52019531 9.37125 -2.22789062 9.7425 -2.95703125 10.125 C-5 11 -5 11 -8 11 C-5.03 8.36 -2.06 5.72 1 3 C0.67 2.01 0.34 1.02 0 0 Z " fill="#FAEB99" transform="translate(186,48)"/>
<path d="M0 0 C3.03952713 4.5592907 5 8.47162419 5 14 C4.34 14 3.68 14 3 14 C3 13.01 3 12.02 3 11 C2.34 11 1.68 11 1 11 C-0.28317892 7.15046324 -0.06643637 4.05261865 0 0 Z " fill="#FAE691" transform="translate(236,74)"/>
<path d="M0 0 C0.88336837 2.4667645 1.1312406 3.63859372 0.22265625 6.140625 C-0.16019531 6.83671875 -0.54304688 7.5328125 -0.9375 8.25 C-1.31777344 8.95640625 -1.69804687 9.6628125 -2.08984375 10.390625 C-2.39019531 10.92171875 -2.69054687 11.4528125 -3 12 C-3.99 12 -4.98 12 -6 12 C-4.68139111 7.38486888 -2.78644563 3.90102388 0 0 Z " fill="#F9E791" transform="translate(20,56)"/>
<path d="M0 0 C3.92488093 3.70060202 7.02215543 7.4906925 10 12 C10 12.66 10 13.32 10 14 C6.91371864 12.97123955 6.00415838 12.43984498 4 10 C2.9375 7.625 2.9375 7.625 2 5 C1.62875 4.071875 1.2575 3.14375 0.875 2.1875 C0.58625 1.465625 0.2975 0.74375 0 0 Z " fill="#FAEBA5" transform="translate(216,42)"/>
<path d="M0 0 C6.28412196 0.65008158 11.63228121 1.4215208 17 5 C17 5.66 17 6.32 17 7 C11.27789404 5.13236819 5.62338249 3.14710968 0 1 C0 0.67 0 0.34 0 0 Z " fill="#F9EA9C" transform="translate(151,29)"/>
<path d="M0 0 C2.97 0.33 5.94 0.66 9 1 C9 1.66 9 2.32 9 3 C12.3 3.99 15.6 4.98 19 6 C14.15845554 7.21038612 11.62122048 5.95063588 7.25 4.0625 C6.55261719 3.77181641 5.85523437 3.48113281 5.13671875 3.18164062 C3.42024305 2.46448297 1.70952768 1.73356598 0 1 C0 0.67 0 0.34 0 0 Z " fill="#F9EBA7" transform="translate(71,234)"/>
<path d="M0 0 C1.65 0.33 3.3 0.66 5 1 C2.35039045 4.63094642 -0.01824456 6.89851796 -4 9 C-2.94124926 5.59687262 -1.99097846 2.98646769 0 0 Z " fill="#FAE686" transform="translate(108,146)"/>
<path d="M0 0 C1.65 0.33 3.3 0.66 5 1 C2.35039045 4.63094642 -0.01824456 6.89851796 -4 9 C-4 7.68 -4 6.36 -4 5 C-3.01 5 -2.02 5 -1 5 C-0.67 3.35 -0.34 1.7 0 0 Z " fill="#FBE68B" transform="translate(124,132)"/>
<path d="M0 0 C0.66 0.33 1.32 0.66 2 1 C-0.90673575 5.31606218 -0.90673575 5.31606218 -3 7 C-6.8125 6.875 -6.8125 6.875 -10 6 C-6.71739341 3.81159561 -3.49181927 1.84114107 0 0 Z " fill="#FAE99B" transform="translate(172,207)"/>
<path d="M0 0 C4.47238653 1.41807378 8.71146306 3.11304374 13 5 C13 5.33 13 5.66 13 6 C8.28596212 5.52060632 4.33420699 5.03165952 0 3 C0 2.01 0 1.02 0 0 Z " fill="#F9EAA0" transform="translate(75,208)"/>
<path d="M0 0 C0 3.75366417 -1.11420063 5.78715662 -3 9 C-3.99 9.33 -4.98 9.66 -6 10 C-6 10.66 -6 11.32 -6 12 C-6.66 12 -7.32 12 -8 12 C-6.49087042 7.01987239 -3.44338151 3.75740058 0 0 Z " fill="#F9EA9C" transform="translate(29,44)"/>
<path d="M0 0 C1.32 0.66 2.64 1.32 4 2 C2.02 3.98 0.04 5.96 -2 8 C-2.66 7.67 -3.32 7.34 -4 7 C-1.125 1.125 -1.125 1.125 0 0 Z " fill="#F9E885" transform="translate(144,115)"/>
<path d="M0 0 C2.31 0 4.62 0 7 0 C4.22719294 3.08089673 1.93673644 4.68775452 -2 6 C-2 5.34 -2 4.68 -2 4 C-1.34 4 -0.68 4 0 4 C0 2.68 0 1.36 0 0 Z " fill="#FAE792" transform="translate(186,224)"/>
<path d="M0 0 C2 3 2 3 2 5 C2.66 5 3.32 5 4 5 C4.33 8.3 4.66 11.6 5 15 C3.39282229 12.58923344 2.38457485 10.71900755 1.375 8.0625 C0.98441406 7.05896484 0.98441406 7.05896484 0.5859375 6.03515625 C0 4 0 4 0 0 Z " fill="#FAECA9" transform="translate(5,155)"/>
<path d="M0 0 C0.33 0.99 0.66 1.98 1 3 C-1.97 5.31 -4.94 7.62 -8 10 C-8.66 9.67 -9.32 9.34 -10 9 C-8.89902432 7.87187697 -7.79408444 6.74762189 -6.6875 5.625 C-6.07261719 4.99851562 -5.45773438 4.37203125 -4.82421875 3.7265625 C-3 2 -3 2 0 0 Z " fill="#FAEB9E" transform="translate(177,60)"/>
<path d="M0 0 C2.31 0 4.62 0 7 0 C3.87511433 2.52394612 0.68685613 4.39701907 -3 6 C-3.66 5.67 -4.32 5.34 -5 5 C-4.67 4.34 -4.34 3.68 -4 3 C-2.68 3 -1.36 3 0 3 C0 2.01 0 1.02 0 0 Z " fill="#FAE997" transform="translate(177,230)"/>
<path d="M0 0 C0.33 0 0.66 0 1 0 C1.25 2.3125 1.25 2.3125 1 5 C-0.8125 6.875 -0.8125 6.875 -3 8 C-3.99 7.67 -4.98 7.34 -6 7 C-5.02433888 5.83040013 -4.044375 4.66438823 -3.0625 3.5 C-2.51722656 2.8503125 -1.97195312 2.200625 -1.41015625 1.53125 C-0.71212891 0.77328125 -0.71212891 0.77328125 0 0 Z " fill="#FBE78D" transform="translate(202,180)"/>
<path d="M0 0 C0.33 0 0.66 0 1 0 C0.91306859 1.79258558 0.80489496 3.58415144 0.6875 5.375 C0.62949219 6.37273437 0.57148437 7.37046875 0.51171875 8.3984375 C0.34285156 9.25695312 0.17398437 10.11546875 0 11 C-0.99 11.66 -1.98 12.32 -3 13 C-2.45144652 8.428721 -1.58255197 4.32564205 0 0 Z " fill="#F9EA9B" transform="translate(7,82)"/>
<path d="M0 0 C-1.88057664 1.88057664 -4.57124096 1.46277585 -7.08984375 1.71875 C-9.08088347 1.91037786 -9.08088347 1.91037786 -11 3 C-13.00800456 2.71887936 -15.01014051 2.38932033 -17 2 C-13.63665155 -0.2422323 -11.90755033 -0.39324354 -7.9375 -0.6875 C-6.87402344 -0.77386719 -5.81054688 -0.86023438 -4.71484375 -0.94921875 C-2 -1 -2 -1 0 0 Z " fill="#F9E484" transform="translate(104,4)"/>
<path d="M0 0 C1.32 0.33 2.64 0.66 4 1 C0.04 4.465 0.04 4.465 -4 8 C-4.33 7.01 -4.66 6.02 -5 5 C-4.360625 4.731875 -3.72125 4.46375 -3.0625 4.1875 C-0.66868314 3.11332248 -0.66868314 3.11332248 0 0 Z " fill="#F9E997" transform="translate(177,87)"/>
<path d="M0 0 C-0.125 1.75 -0.125 1.75 -1 4 C-4.0625 6.25 -4.0625 6.25 -7 8 C-7.66 7.67 -8.32 7.34 -9 7 C-7.88121617 5.82737096 -6.75476949 4.66204862 -5.625 3.5 C-4.68527344 2.52546875 -4.68527344 2.52546875 -3.7265625 1.53125 C-2 0 -2 0 0 0 Z " fill="#FAEB98" transform="translate(151,84)"/>
<path d="M0 0 C0.66 0 1.32 0 2 0 C2.66 0.99 3.32 1.98 4 3 C6.05925139 3.72382467 6.05925139 3.72382467 8 4 C8 5.65 8 7.3 8 9 C6.84775972 8.07038578 5.70340824 7.1309875 4.5625 6.1875 C3.60537109 5.40439453 3.60537109 5.40439453 2.62890625 4.60546875 C1 3 1 3 0 0 Z " fill="#F9EA99" transform="translate(28,200)"/>
<path d="M0 0 C2.97 1.65 5.94 3.3 9 5 C5 6 5 6 2.8125 5.3125 C1 4 1 4 0 0 Z " fill="#F8E998" transform="translate(66,202)"/>
<path d="M0 0 C1.65 0.33 3.3 0.66 5 1 C3.60755361 3.78489278 1.44008012 5.12301529 -1 7 C-1.66 6.67 -2.32 6.34 -3 6 C-2.34 5.34 -1.68 4.68 -1 4 C-0.3574765 1.93125966 -0.3574765 1.93125966 0 0 Z " fill="#F9ED9B" transform="translate(200,66)"/>
<path d="M0 0 C0.66 0.33 1.32 0.66 2 1 C-0.97 3.475 -0.97 3.475 -4 6 C-4.33 4.68 -4.66 3.36 -5 2 C-2.625 0.9375 -2.625 0.9375 0 0 Z " fill="#FBE899" transform="translate(193,75)"/>
<path d="M0 0 C2.15377564 2.62198774 3.40072174 4.64404172 4 8 C2.68 8 1.36 8 0 8 C0 5.36 0 2.72 0 0 Z " fill="#FAE58A" transform="translate(230,62)"/>
<path d="M0 0 C1.50433594 0.01353516 1.50433594 0.01353516 3.0390625 0.02734375 C3.80992188 0.03894531 4.58078125 0.05054687 5.375 0.0625 C5.375 0.3925 5.375 0.7225 5.375 1.0625 C1.085 1.7225 -3.205 2.3825 -7.625 3.0625 C-7.625 2.4025 -7.625 1.7425 -7.625 1.0625 C-4.98041621 -0.25979189 -2.94738699 -0.03427194 0 0 Z " fill="#FBECA6" transform="translate(105.625,25.9375)"/>
<path d="M0 0 C2.45823172 3.68734758 3.01242616 6.69699971 4 11 C3.34 10.67 2.68 10.34 2 10 C2 9.34 2 8.68 2 8 C1.34 8 0.68 8 0 8 C0 5.36 0 2.72 0 0 Z " fill="#FBEB9E" transform="translate(29,149)"/>
<path d="M0 0 C0.66 0 1.32 0 2 0 C2.625 2.875 2.625 2.875 3 6 C2.34 6.66 1.68 7.32 1 8 C0 7 0 7 -0.0625 3.4375 C-0.041875 2.303125 -0.02125 1.16875 0 0 Z " fill="#F9E58C" transform="translate(220,106)"/>
<path d="M0 0 C1 2 1 2 0.375 4 C-1.39265071 6.57112831 -3.07589059 7.07659703 -6 8 C-4.55746343 4.63408134 -2.66735273 2.48952921 0 0 Z " fill="#FAED9C" transform="translate(36,36)"/>
<path d="M0 0 C3.55780196 0.60990891 6.6828589 1.5783681 10 3 C10 3.33 10 3.66 10 4 C2.25 3.125 2.25 3.125 0 2 C0 1.34 0 0.68 0 0 Z " fill="#FAE8A2" transform="translate(166,8)"/>
<path d="M0 0 C-0.66 1.32 -1.32 2.64 -2 4 C-3.98 4 -5.96 4 -8 4 C-4.5 0 -4.5 0 0 0 Z " fill="#FBE892" transform="translate(182,203)"/>
<path d="M0 0 C0 0.99 0 1.98 0 3 C-4.455 3.495 -4.455 3.495 -9 4 C-6.10130984 1.70103884 -3.84906588 0 0 0 Z " fill="#F9EBA4" transform="translate(80,8)"/>
<path d="M0 0 C0.66 0.33 1.32 0.66 2 1 C0.37660195 2.70884005 -1.29319053 4.37446717 -3 6 C-3.66 6 -4.32 6 -5 6 C-5 5.34 -5 4.68 -5 4 C-5.66 3.67 -6.32 3.34 -7 3 C-5.5459375 2.5359375 -5.5459375 2.5359375 -4.0625 2.0625 C-1.15934208 1.30476658 -1.15934208 1.30476658 0 0 Z " fill="#FCEBA3" transform="translate(70,183)"/>
<path d="M0 0 C0.28875 0.598125 0.5775 1.19625 0.875 1.8125 C2.04742026 4.19327792 2.04742026 4.19327792 4 7 C4 7.99 4 8.98 4 10 C3.34 10 2.68 10 2 10 C-0.09350689 6.5980513 -0.17942163 3.94727588 0 0 Z " fill="#F6E587" transform="translate(10,166)"/>
<path d="M0 0 C1.2065625 0.0309375 1.2065625 0.0309375 2.4375 0.0625 C0.7875 1.7125 -0.8625 3.3625 -2.5625 5.0625 C-3.125 3.125 -3.125 3.125 -3.5625 1.0625 C-2.5625 0.0625 -2.5625 0.0625 0 0 Z " fill="#FAE695" transform="translate(63.5625,43.9375)"/>
</svg>
