<?xml version="1.0" encoding="UTF-8"?>
<svg version="1.1" xmlns="http://www.w3.org/2000/svg" width="259" height="255">
<path d="M0 0 C1.2913385 0.00314209 1.2913385 0.00314209 2.60876465 0.00634766 C15.93242569 0.07317324 28.31507732 0.89293832 40.9375 5.5 C41.73945801 5.78407715 42.54141602 6.0681543 43.36767578 6.36083984 C60.68483309 12.6514788 75.38238799 22.11880838 88.9375 34.5 C89.73542969 35.21542969 90.53335938 35.93085937 91.35546875 36.66796875 C114.90951468 58.88798022 127.72293397 91.58828552 129.21484375 123.53125 C130.21092441 158.47877396 117.44829871 191.67409422 93.55859375 217.1328125 C85.95165761 225.06560407 78.3078798 231.69250225 68.9375 237.5 C68.03386719 238.09941406 67.13023437 238.69882813 66.19921875 239.31640625 C59.96207798 243.25983189 53.41744637 246.08384725 46.5625 248.75 C45.72525391 249.07943604 44.88800781 249.40887207 44.02539062 249.74829102 C29.95423046 255.01958483 16.72671117 256.03397224 1.84448242 256.00097656 C-1.22768817 256.00000704 -4.29733012 256.04169989 -7.36914062 256.0859375 C-29.4213664 256.21869278 -51.13135124 250.99938517 -69.0625 237.5 C-71.5375 235.025 -71.5375 235.025 -74.0625 232.5 C-64.1625 222.6 -64.1625 222.6 -54.0625 212.5 C-51.731875 213.716875 -49.40125 214.93375 -47 216.1875 C-24.45886472 227.62292349 2.39964337 232.08348279 27.05078125 224.828125 C33.91669859 222.57245339 40.47793912 219.72890587 46.9375 216.5 C47.98550781 215.97664062 49.03351563 215.45328125 50.11328125 214.9140625 C73.79804472 202.05213797 89.0462025 180.16514185 96.75 154.76953125 C103.85176982 129.94073569 100.2565553 102.51488454 88.06811523 79.83984375 C74.47071359 55.80753398 53.31890534 39.12653056 26.82006836 31.64575195 C0.25754133 24.53418296 -27.36401871 28.90847346 -51.18261719 42.37011719 C-75.54790868 57.01460667 -90.4485671 79.997351 -97.3359375 107.09765625 C-102.48847973 131.22595884 -97.88566685 155.97521075 -86.62890625 177.73828125 C-85.86990734 180.09902957 -86.22183386 181.16814594 -87.0625 183.5 C-88.73657227 185.51464844 -88.73657227 185.51464844 -90.87890625 187.609375 C-91.64267578 188.36347656 -92.40644531 189.11757812 -93.19335938 189.89453125 C-93.99580078 190.67183594 -94.79824219 191.44914063 -95.625 192.25 C-96.43130859 193.04277344 -97.23761719 193.83554688 -98.06835938 194.65234375 C-100.05983778 196.60847046 -102.05797721 198.55725719 -104.0625 200.5 C-108.22656831 199.11197723 -109.29107919 196.28171781 -111.3125 192.625 C-111.70655029 191.914646 -112.10060059 191.20429199 -112.5065918 190.47241211 C-128.61020689 160.48760445 -132.75948206 125.06650058 -123.42041016 92.30053711 C-122.40888712 88.99257241 -121.26610401 85.74247823 -120.0625 82.5 C-119.8257959 81.85498535 -119.5890918 81.2099707 -119.34521484 80.54541016 C-112.82928731 63.2513213 -102.18150384 48.40161081 -89.0625 35.5 C-88.16917969 34.60796875 -87.27585938 33.7159375 -86.35546875 32.796875 C-71.76884868 18.87231235 -52.54858545 8.61747157 -33.0625 3.5 C-32.1031958 3.24105957 -31.1438916 2.98211914 -30.15551758 2.71533203 C-20.0695881 0.25334881 -10.33788759 -0.05767856 0 0 Z " fill="#BE2232" transform="translate(130.0625,-0.5)"/>
<path d="M0 0 C8.06010839 6.49592221 15.20335584 14.12991947 22.42626953 21.5222168 C23.80068425 22.92661274 25.18148452 24.32475066 26.5625 25.72265625 C27.77099609 26.95640991 27.77099609 26.95640991 29.00390625 28.21508789 C30.80218942 30.22219121 30.80218942 30.22219121 33 30 C34.47366448 28.55746229 34.47366448 28.55746229 36.01171875 26.63671875 C40.4015318 21.48178183 45.06579133 16.63838046 49.8125 11.8125 C51.07030273 10.49862305 51.07030273 10.49862305 52.35351562 9.15820312 C60.42024503 0.9798664 68.45166659 -4.08846633 80.125 -4.3125 C89.81701644 -4.34386575 95.97472224 -1.48487178 103 5 C98.89995293 9.89192005 94.64050072 14.48448713 90.09765625 18.96484375 C89.4568663 19.60184708 88.81607635 20.2388504 88.15586853 20.89515686 C85.4463554 23.58850745 82.73088051 26.27581685 80.01586914 28.96362305 C78.02017609 30.94107086 76.02761678 32.92163972 74.03515625 34.90234375 C73.4338942 35.49530746 72.83263214 36.08827118 72.21315002 36.69920349 C66.39927239 42.48001136 61.12118909 48.59851364 56 55 C79.265 78.265 79.265 78.265 103 102 C98.49364022 107.63294973 98.49364022 107.63294973 94.9375 109.25 C94.26589844 109.56453125 93.59429687 109.8790625 92.90234375 110.203125 C88.75624338 111.93988984 85.00042462 112.31619952 80.5625 112.4375 C79.91345703 112.48326172 79.26441406 112.52902344 78.59570312 112.57617188 C69.06126103 112.78723267 61.40626174 107.61283883 54.7223053 101.27958679 C51.67534104 98.28111862 48.70846301 95.21042539 45.75 92.125 C44.5053344 90.85016658 43.2592491 89.57671766 42.01171875 88.3046875 C38.99123195 85.21881887 35.99049067 82.1149349 33 79 C29.92513447 80.37149237 27.81685531 81.93451106 25.4440918 84.31298828 C24.76626144 84.987742 24.08843109 85.66249573 23.39006042 86.35769653 C22.3055938 87.45294144 22.3055938 87.45294144 21.19921875 88.5703125 C20.44461868 89.32537079 19.69001862 90.08042908 18.91255188 90.85836792 C17.31571261 92.45822751 15.72130373 94.06051605 14.12915039 95.66503906 C11.71220127 98.10011349 9.28747835 100.52722151 6.86132812 102.953125 C5.30682161 104.5125524 3.75277068 106.07243411 2.19921875 107.6328125 C1.48231369 108.35083038 0.76540863 109.06884827 0.02677917 109.80862427 C-3.87029429 113.74187296 -7.58133477 117.77334162 -11.19978333 121.96304321 C-16.88696592 128.39812702 -23.06227158 134.41041494 -29.10424805 140.50927734 C-30.82379757 142.25044109 -32.53705564 143.99784114 -34.24389648 145.75146484 C-36.73517454 148.31015255 -39.246044 150.84813353 -41.76171875 153.3828125 C-42.50902756 154.15795197 -43.25633636 154.93309143 -44.02629089 155.73171997 C-50.21542957 161.89756816 -58.13056727 167.78896272 -67.1015625 168.7265625 C-77.16626669 168.43644908 -85.41914456 167.07546507 -93 160 C-92.52847683 155.7426275 -89.86731019 153.47043054 -86.94873047 150.62402344 C-86.16070793 149.83775322 -86.16070793 149.83775322 -85.35676575 149.03559875 C-83.61710351 147.30312658 -81.86716463 145.5814221 -80.1171875 143.859375 C-78.90154552 142.65187487 -77.68664118 141.44363172 -76.47244263 140.23468018 C-73.26916898 137.0485378 -70.0574501 133.8710521 -66.84344482 130.69573975 C-61.71880943 125.6302146 -56.60657349 120.55218754 -51.49521255 115.47327423 C-49.71726047 113.70915563 -47.93547018 111.94899028 -46.15304565 110.18939209 C-41.1475539 105.23544355 -36.24133343 100.26233796 -31.66943359 94.89898682 C-28.29605547 91.06175687 -24.62689183 87.5057167 -21.00390625 83.90625 C-20.17036118 83.07411987 -19.3368161 82.24198975 -18.47801208 81.38464355 C-15.84186738 78.75405065 -13.20224895 76.12697559 -10.5625 73.5 C-8.76344021 71.70596145 -6.9646098 69.91169285 -5.16601562 68.1171875 C-0.77999188 63.74212875 3.60888142 59.36994488 8 55 C3.14301121 49.12152714 -2.13571121 43.81157302 -7.58984375 38.48828125 C-9.44394725 36.66140373 -11.29744556 34.83391184 -13.15039062 33.00585938 C-16.056333 30.14189869 -18.9662845 27.28226299 -21.88793945 24.43432617 C-24.71865652 21.67415087 -27.52941711 18.89411831 -30.33984375 16.11328125 C-31.22300766 15.25906082 -32.10617157 14.40484039 -33.01609802 13.5247345 C-33.81765823 12.72677963 -34.61921844 11.92882477 -35.44506836 11.10668945 C-36.15755234 10.40832474 -36.87003632 9.70996002 -37.60411072 8.99043274 C-39 7 -39 7 -38.82228088 4.83171082 C-36.82558133 0.38386794 -31.07586926 -1.55699501 -26.8125 -3.3125 C-17.29792709 -5.02824266 -8.48614745 -4.93115076 0 0 Z " fill="#BE2030" transform="translate(93,77)"/>
<path d="M0 0 C0.66 0.33 1.32 0.66 2 1 C1.649375 1.763125 1.29875 2.52625 0.9375 3.3125 C-0.32360884 6.04759379 -0.32360884 6.04759379 1 9 C3.01508358 9.73323796 3.01508358 9.73323796 5 10 C5.33 11.65 5.66 13.3 6 15 C6.99 15 7.98 15 9 15 C9.33 16.65 9.66 18.3 10 20 C10.99 19.67 11.98 19.34 13 19 C13.33 20.32 13.66 21.64 14 23 C15.32 23 16.64 23 18 23 C18 24.32 18 25.64 18 27 C18.99 27.33 19.98 27.66 21 28 C21.33 28.66 21.66 29.32 22 30 C22.66 30.268125 23.32 30.53625 24 30.8125 C26 32 26 32 26.75 34.625 C26.87375 35.800625 26.87375 35.800625 27 37 C28.65 37 30.3 37 32 37 C32.268125 37.639375 32.53625 38.27875 32.8125 38.9375 C33.88667752 41.33131686 33.88667752 41.33131686 37 42 C37.495 44.97 37.495 44.97 38 48 C39.32 48 40.64 48 42 48 C42 49.32 42 50.64 42 52 C42.99 52 43.98 52 45 52 C45.33 52.99 45.66 53.98 46 55 C44.7421875 57.0078125 44.7421875 57.0078125 42.875 59.125 C42.27429688 59.82882813 41.67359375 60.53265625 41.0546875 61.2578125 C38.68860682 63.264033 37.04538201 63.65225742 34 64 C34.61488281 63.29423828 34.61488281 63.29423828 35.2421875 62.57421875 C35.78101563 61.95160156 36.31984375 61.32898438 36.875 60.6875 C37.40867188 60.07261719 37.94234375 59.45773438 38.4921875 58.82421875 C40.1640447 56.86501788 40.1640447 56.86501788 42 54 C41.40895981 53.42006287 40.81791962 52.84012573 40.20896912 52.24261475 C34.64823298 46.78195616 29.09952219 41.30942424 23.5640707 35.82313156 C20.7176192 33.00280262 17.86669275 30.18732323 15.00512695 27.38232422 C12.24504427 24.67646572 9.4972646 21.95866509 6.75767708 19.23206329 C5.70899738 18.19264069 4.65591811 17.15763797 3.59847832 16.1271286 C2.12082384 14.68563668 0.65943256 13.22938325 -0.79907227 11.76855469 C-2.05482811 10.52945343 -2.05482811 10.52945343 -3.33595276 9.26531982 C-5 7 -5 7 -4.89146423 4.81134033 C-3.72496473 2.44116381 -2.19347743 1.41514673 0 0 Z M36 37 C37 41 37 41 37 41 Z " fill="#C45A69" transform="translate(59,77)"/>
<path d="M0 0 C1.625 1.3125 1.625 1.3125 2.375 3.9375 C2.49875 5.113125 2.49875 5.113125 2.625 6.3125 C3.945 5.9825 5.265 5.6525 6.625 5.3125 C10.625 10.9375 10.625 10.9375 10.625 14.3125 C11.3675 14.18875 12.11 14.065 12.875 13.9375 C15.625 14.3125 15.625 14.3125 17.9375 17.3125 C18.494375 18.3025 19.05125 19.2925 19.625 20.3125 C20.285 19.9825 20.945 19.6525 21.625 19.3125 C22.058125 20.488125 22.058125 20.488125 22.5 21.6875 C23.47412254 24.40921632 23.47412254 24.40921632 25.625 26.3125 C25.295 26.9725 24.965 27.6325 24.625 28.3125 C20.52391114 26.69093976 17.79351833 23.7357297 14.765625 20.6484375 C14.21638367 20.09636627 13.66714233 19.54429504 13.10125732 18.97549438 C11.35440707 17.21748185 9.61465399 15.4526311 7.875 13.6875 C6.68926409 12.4917292 5.5030712 11.29641135 4.31640625 10.1015625 C1.41394915 7.17709747 -1.4821641 4.24648126 -4.375 1.3125 C-7.19378012 2.59424718 -9.22741496 3.92257615 -11.390625 6.1328125 C-11.91914062 6.66777344 -12.44765625 7.20273438 -12.9921875 7.75390625 C-13.80042969 8.58728516 -13.80042969 8.58728516 -14.625 9.4375 C-15.17929688 10.00082031 -15.73359375 10.56414062 -16.3046875 11.14453125 C-17.66604485 12.52936028 -19.02114859 13.92033204 -20.375 15.3125 C-20.49875 14.673125 -20.6225 14.03375 -20.75 13.375 C-20.95625 12.694375 -21.1625 12.01375 -21.375 11.3125 C-22.035 10.9825 -22.695 10.6525 -23.375 10.3125 C-21.5625 9.25 -21.5625 9.25 -19.375 8.3125 C-18.385 8.6425 -17.395 8.9725 -16.375 9.3125 C-16.58125 8.69375 -16.7875 8.075 -17 7.4375 C-17.12375 6.73625 -17.2475 6.035 -17.375 5.3125 C-15.375 3.3125 -15.375 3.3125 -12.375 2.3125 C-12.375 1.6525 -12.375 0.9925 -12.375 0.3125 C-8.16841995 -1.08969335 -4.2837274 -1.24002635 0 0 Z " fill="#C35160" transform="translate(130.375,154.6875)"/>
<path d="M0 0 C0 0.99 0 1.98 0 3 C0.061875 3.825 0.12375 4.65 0.1875 5.5 C0 8 0 8 -1.125 9.75 C-3.65977861 11.43985241 -6.00575483 11.66730609 -9 12 C-8.87625 13.3921875 -8.87625 13.3921875 -8.75 14.8125 C-8.8325 15.864375 -8.915 16.91625 -9 18 C-10.30582947 19.03565785 -11.64377755 20.03126968 -13 21 C-14.06902939 23.30252483 -15.07175817 25.6372026 -16 28 C-16.66 28.99 -17.32 29.98 -18 31 C-18.66 31 -19.32 31 -20 31 C-20.33 32.32 -20.66 33.64 -21 35 C-21.66 35 -22.32 35 -23 35 C-23.12375 36.2375 -23.2475 37.475 -23.375 38.75 C-23.91743301 43.03672757 -25.20188834 45.73632321 -27.5 49.375 C-29.11848683 52.00817151 -29.11848683 52.00817151 -30.0625 55.1875 C-31 58 -31 58 -33 60 C-31.83969971 52.92912625 -29.96550566 46.57347382 -27.125 40 C-26.73497803 39.09717285 -26.34495605 38.1943457 -25.94311523 37.26416016 C-19.63865342 23.22391342 -10.84042547 10.88839195 0 0 Z " fill="#C24E5D" transform="translate(39,37)"/>
<path d="M0 0 C0.33 0 0.66 0 1 0 C0.96970703 0.72364746 0.93941406 1.44729492 0.90820312 2.19287109 C0.1696496 19.74732892 0.1696496 19.74732892 -0.1875 37.3125 C-0.20039062 38.01487793 -0.21328125 38.71725586 -0.2265625 39.44091797 C-0.23493732 43.69637379 0.55205665 47.02231655 2 51 C2.34375 53.34375 2.34375 53.34375 2.5 55.5 C2.76157164 58.33924126 3.14828074 60.44484221 4.0625 63.1875 C5.09137337 66.27412012 5.15387923 68.76853625 5 72 C-7.83602507 52.7459624 -4.10635275 21.38725393 0 0 Z " fill="#C8727C" transform="translate(5,98)"/>
<path d="M0 0 C0.99 0 1.98 0 3 0 C2.43379699 3.77468671 0.87731019 5.47551893 -1.81640625 8.109375 C-2.58017578 8.86347656 -3.34394531 9.61757812 -4.13085938 10.39453125 C-4.93330078 11.17183594 -5.73574219 11.94914063 -6.5625 12.75 C-7.77196289 13.93916016 -7.77196289 13.93916016 -9.00585938 15.15234375 C-10.99733778 17.10847046 -12.99547721 19.05725719 -15 21 C-15.99 20.67 -16.98 20.34 -18 20 C-19.1875 17.4375 -19.1875 17.4375 -20 15 C-19.01 14.67 -18.02 14.34 -17 14 C-16.9175 13.21625 -16.835 12.4325 -16.75 11.625 C-16 9 -16 9 -13.9375 7.6875 C-12.9784375 7.3471875 -12.9784375 7.3471875 -12 7 C-12 8.32 -12 9.64 -12 11 C-11.34 11 -10.68 11 -10 11 C-9.67 10.34 -9.34 9.68 -9 9 C-8.01 9 -7.02 9 -6 9 C-5.855625 8.38125 -5.71125 7.7625 -5.5625 7.125 C-5 5 -5 5 -4 3 C-3.01 3 -2.02 3 -1 3 C-0.67 2.01 -0.34 1.02 0 0 Z " fill="#C23D4C" transform="translate(41,179)"/>
<path d="M0 0 C4.13621084 3.3810038 7.81316569 6.66590534 11 11 C3.02013642 18.70555577 -3.57305855 20.28389312 -14.45288086 20.24169922 C-17.55067667 20.18299084 -20.04258925 19.98580358 -23 19 C-23 18.34 -23 17.68 -23 17 C-22.42032471 17.00523682 -21.84064941 17.01047363 -21.2434082 17.01586914 C-18.5997833 17.03674334 -15.95617579 17.04969327 -13.3125 17.0625 C-11.94448242 17.07506836 -11.94448242 17.07506836 -10.54882812 17.08789062 C-9.21948242 17.09272461 -9.21948242 17.09272461 -7.86328125 17.09765625 C-7.05157471 17.10289307 -6.23986816 17.10812988 -5.40356445 17.11352539 C-2.85135327 16.9929791 -0.48973863 16.559949 2 16 C2.33 15.01 2.66 14.02 3 13 C3.66 13.33 4.32 13.66 5 14 C5 12.68 5 11.36 5 10 C4.34 9.67 3.68 9.34 3 9 C2.67 8.01 2.34 7.02 2 6 C1.01 5.67 0.02 5.34 -1 5 C-1 4.34 -1 3.68 -1 3 C-1.66 2.67 -2.32 2.34 -3 2 C-2.01 2 -1.02 2 0 2 C0 1.34 0 0.68 0 0 Z " fill="#C25A67" transform="translate(185,169)"/>
<path d="M0 0 C0.99 0.66 1.98 1.32 3 2 C-13.12401229 19.6678007 -13.12401229 19.6678007 -25.08984375 20.3515625 C-28.73953129 20.42820977 -32.35892534 20.26860387 -36 20 C-36 19.67 -36 19.34 -36 19 C-30.91913204 18.15318867 -26.15171623 17.90961901 -21 18 C-21 17.34 -21 16.68 -21 16 C-19.35 16 -17.7 16 -16 16 C-16 15.34 -16 14.68 -16 14 C-14.68 14 -13.36 14 -12 14 C-11.67 12.68 -11.34 11.36 -11 10 C-10.34 10 -9.68 10 -9 10 C-8.67 9.34 -8.34 8.68 -8 8 C-7.34 8.33 -6.68 8.66 -6 9 C-6 8.01 -6 7.02 -6 6 C-5.34 5.67 -4.68 5.34 -4 5 C-2.86649466 2.98330173 -2.86649466 2.98330173 -2 1 C-1.34 1.33 -0.68 1.66 0 2 C0 1.34 0 0.68 0 0 Z " fill="#C2616D" transform="translate(51,225)"/>
<path d="M0 0 C1 4 1 4 1 4 Z M-1 4 C0.5 5.25 0.5 5.25 2 7 C2 8.32 2 9.64 2 11 C3.32 11 4.64 11 6 11 C6 12.32 6 13.64 6 15 C6.99 15 7.98 15 9 15 C9.33 15.99 9.66 16.98 10 18 C8.7421875 20.0078125 8.7421875 20.0078125 6.875 22.125 C6.27429688 22.82882813 5.67359375 23.53265625 5.0546875 24.2578125 C2.68860682 26.264033 1.04538201 26.65225742 -2 27 C-1.38511719 26.29423828 -1.38511719 26.29423828 -0.7578125 25.57421875 C-0.21898438 24.95160156 0.31984375 24.32898438 0.875 23.6875 C1.67550781 22.76517578 1.67550781 22.76517578 2.4921875 21.82421875 C4.1640447 19.86501788 4.1640447 19.86501788 6 17 C5.41089844 16.48050781 4.82179688 15.96101562 4.21484375 15.42578125 C3.46332031 14.72839844 2.71179688 14.03101563 1.9375 13.3125 C1.18339844 12.62800781 0.42929688 11.94351563 -0.34765625 11.23828125 C-2 9 -2 9 -1.74609375 6.23046875 C-1.49988281 5.49441406 -1.25367187 4.75835937 -1 4 Z " fill="#C65C68" transform="translate(95,114)"/>
<path d="M0 0 C0.33 0 0.66 0 1 0 C0.98428955 0.73935791 0.9685791 1.47871582 0.95239258 2.24047852 C0.57520289 22.31243057 0.57520289 22.31243057 4 42 C4.4032299 43.81086883 4.80010992 45.62317665 5.1875 47.4375 C5.455625 48.613125 5.72375 49.78875 6 51 C2.09711315 48.39807543 2.00476755 46.48280907 1 42 C1 40.68 1 39.36 1 38 C0.34 38 -0.32 38 -1 38 C-1.02471455 33.0703976 -1.04286691 28.14083126 -1.05493164 23.21118164 C-1.05996113 21.53409192 -1.06678548 19.85700658 -1.07543945 18.17993164 C-1.08756559 15.769683 -1.09324215 13.35949232 -1.09765625 10.94921875 C-1.10281754 10.19912033 -1.10797882 9.44902191 -1.11329651 8.67619324 C-1.11363785 5.51048768 -1.00887343 3.02662028 0 0 Z " fill="#D28892" transform="translate(30,111)"/>
<path d="M0 0 C0.83343933 -0.0033284 1.66687866 -0.0066568 2.52557373 -0.01008606 C4.2838079 -0.0151309 6.04205157 -0.01749514 7.80029297 -0.01733398 C10.46207857 -0.019513 13.12344422 -0.03767414 15.78515625 -0.05664062 C24.19019102 -0.08356846 32.04557184 0.01883265 40.234375 2.16796875 C40.234375 2.49796875 40.234375 2.82796875 40.234375 3.16796875 C37.94277181 3.19489359 35.65107954 3.21432999 33.359375 3.23046875 C32.08320313 3.24207031 30.80703125 3.25367188 29.4921875 3.265625 C26.234375 3.16796875 26.234375 3.16796875 24.234375 2.16796875 C21.31738226 2.08098647 18.42454952 2.05244952 15.5078125 2.0703125 C14.64499664 2.07172745 13.78218079 2.0731424 12.89321899 2.07460022 C10.1319027 2.08020687 7.37066688 2.09276048 4.609375 2.10546875 C2.7395845 2.11048289 0.86979274 2.11504595 -1 2.11914062 C-5.58857277 2.13017846 -10.17708523 2.14744755 -14.765625 2.16796875 C-14.765625 1.83796875 -14.765625 1.50796875 -14.765625 1.16796875 C-9.79522236 0.1757687 -5.04368187 0.00709808 0 0 Z " fill="#BB5A64" transform="translate(119.765625,-0.16796875)"/>
<path d="M0 0 C0.33 0 0.66 0 1 0 C0.75192328 12.56170289 -1.99026852 25.44266597 -7 37 C-7.33 37 -7.66 37 -8 37 C-8.30515653 32.11749549 -7.74580041 28.89335525 -5.859375 24.29296875 C-2.94932673 16.52843086 -1.52880969 8.12967037 0 0 Z " fill="#C87780" transform="translate(257,139)"/>
<path d="M0 0 C6.40624592 5.26735775 12.18674785 11.09998289 18 17 C18.66 17.66 19.32 18.32 20 19 C13.25 18.25 13.25 18.25 11 16 C11 14.68 11 13.36 11 12 C10.195625 11.7525 9.39125 11.505 8.5625 11.25 C6 10 6 10 5.1875 7.875 C5.125625 7.25625 5.06375 6.6375 5 6 C3.68 5.67 2.36 5.34 1 5 C0.67 3.35 0.34 1.7 0 0 Z " fill="#C66370" transform="translate(106,90)"/>
<path d="M0 0 C0.99 0 1.98 0 3 0 C1.39978447 4.01958901 -1.44881308 6.67630773 -4.5 9.625 C-4.99886719 10.11484375 -5.49773437 10.6046875 -6.01171875 11.109375 C-7.33735065 12.41012909 -8.66838366 13.705373 -10 15 C-10.66 15.66 -11.32 16.32 -12 17 C-12 15.35 -12 13.7 -12 12 C-11.34 12 -10.68 12 -10 12 C-10 11.34 -10 10.68 -10 10 C-9.34 10 -8.68 10 -8 10 C-8.33 8.68 -8.66 7.36 -9 6 C-6.02819057 4.10134397 -3.48539917 2.64544429 0 2 C0 1.34 0 0.68 0 0 Z " fill="#BE404E" transform="translate(97,178)"/>
<path d="M0 0 C4.26815599 1.38734022 6.70663167 3.3536178 9.8125 6.5625 C10.60269531 7.36816406 11.39289063 8.17382812 12.20703125 9.00390625 C14 11 14 11 14 12 C12.35 12 10.7 12 9 12 C8.67 10.35 8.34 8.7 8 7 C5.69 7.33 3.38 7.66 1 8 C0.87625 7.360625 0.7525 6.72125 0.625 6.0625 C0.315625 5.0415625 0.315625 5.0415625 0 4 C-0.66 3.67 -1.32 3.34 -2 3 C-1.34 2.01 -0.68 1.02 0 0 Z " fill="#BF3D4B" transform="translate(210,28)"/>
<path d="M0 0 C1.32 0 2.64 0 4 0 C3.58685438 4.44926052 0.49538473 6.84100104 -2.5625 9.75 C-3.08263672 10.25660156 -3.60277344 10.76320312 -4.13867188 11.28515625 C-5.41910084 12.53034405 -6.70867554 13.76611502 -8 15 C-8.12375 14.360625 -8.2475 13.72125 -8.375 13.0625 C-8.58125 12.381875 -8.7875 11.70125 -9 11 C-9.66 10.67 -10.32 10.34 -11 10 C-9.1875 8.9375 -9.1875 8.9375 -7 8 C-6.01 8.33 -5.02 8.66 -4 9 C-4.20625 8.38125 -4.4125 7.7625 -4.625 7.125 C-4.74875 6.42375 -4.8725 5.7225 -5 5 C-3 3 -3 3 0 2 C0 1.34 0 0.68 0 0 Z " fill="#C24E5B" transform="translate(118,155)"/>
<path d="M0 0 C0.99 0 1.98 0 3 0 C2.42308522 3.16854747 1.58353113 4.78226459 -0.72265625 7.015625 C-1.52993164 7.80839844 -1.52993164 7.80839844 -2.35351562 8.6171875 C-2.91748047 9.15601563 -3.48144531 9.69484375 -4.0625 10.25 C-4.63033203 10.80429688 -5.19816406 11.35859375 -5.78320312 11.9296875 C-7.18212469 13.29334214 -8.59019114 14.64760417 -10 16 C-10.625 14.1875 -10.625 14.1875 -11 12 C-10.34 11.01 -9.68 10.02 -9 9 C-8.01 9 -7.02 9 -6 9 C-5.855625 8.38125 -5.71125 7.7625 -5.5625 7.125 C-5 5 -5 5 -4 3 C-3.01 3 -2.02 3 -1 3 C-0.67 2.01 -0.34 1.02 0 0 Z " fill="#C45761" transform="translate(41,179)"/>
<path d="M0 0 C0 0.99 0 1.98 0 3 C-1.66666667 4.66666667 -3.33333333 6.33333333 -5 8 C-5.70153822 9.18842669 -6.36837299 10.39798687 -7 11.625 C-9.12030206 15.20300973 -10.52025164 15.98540884 -14 18 C-15.34689915 20.57099402 -15.34689915 20.57099402 -16 23 C-17.65 23 -19.3 23 -21 23 C-16.52863561 17.6998313 -11.88507382 12.60393477 -7.125 7.5625 C-6.43664063 6.83095703 -5.74828125 6.09941406 -5.0390625 5.34570312 C-3.36075098 3.56249713 -1.68104588 1.78062784 0 0 Z " fill="#CF7F87" transform="translate(65,168)"/>
<path d="M0 0 C0.99 0 1.98 0 3 0 C2.5875 1.216875 2.175 2.43375 1.75 3.6875 C-2.17793664 15.19529195 -2.17793664 15.19529195 -5 27 C-7.32590854 23.36576791 -7.16265833 20.22911669 -7 16 C-6.34 15.67 -5.68 15.34 -5 15 C-4.09274566 12.88672575 -4.09274566 12.88672575 -3.375 10.4375 C-3.11460938 9.61121094 -2.85421875 8.78492187 -2.5859375 7.93359375 C-2.39257812 7.29550781 -2.19921875 6.65742187 -2 6 C-1.34 6 -0.68 6 0 6 C0 4.02 0 2.04 0 0 Z " fill="#C76F79" transform="translate(37,83)"/>
<path d="M0 0 C0.33 0 0.66 0 1 0 C3.40651694 13.46503529 4.39274748 26.3265692 4 40 C3.67 40 3.34 40 3 40 C2.91697632 38.91730835 2.91697632 38.91730835 2.83227539 37.81274414 C2.5803846 34.56227832 2.32153699 31.31240379 2.0625 28.0625 C1.97548828 26.92619141 1.88847656 25.78988281 1.79882812 24.61914062 C1.71181641 23.53955078 1.62480469 22.45996094 1.53515625 21.34765625 C1.456604 20.34742432 1.37805176 19.34719238 1.29711914 18.31665039 C1.24527206 16.04146885 1.24527206 16.04146885 0 15 C-0.07313567 12.46950598 -0.09247527 9.96695163 -0.0625 7.4375 C-0.05798828 6.72658203 -0.05347656 6.01566406 -0.04882812 5.28320312 C-0.03700864 3.52209987 -0.01907263 1.76103964 0 0 Z " fill="#D89BA2" transform="translate(255,98)"/>
<path d="M0 0 C0.33 0 0.66 0 1 0 C1.30267236 5.14543016 0.80934354 7.72979782 -2 12 C-2.34820041 13.66362417 -2.68404492 15.32995171 -3 17 C-3.66 17.66 -4.32 18.32 -5 19 C-5.33 19.99 -5.66 20.98 -6 22 C-7 25 -7 25 -9 27 C-7.61886286 17.33204001 -3.85862523 8.89340894 0 0 Z " fill="#C76D78" transform="translate(15,70)"/>
<path d="M0 0 C0.33 0 0.66 0 1 0 C1.05437607 1.58294782 1.09296271 3.16644256 1.125 4.75 C1.14820313 5.63171875 1.17140625 6.5134375 1.1953125 7.421875 C0.99139502 10.1135858 0.36551721 11.69904974 -1 14 C-1.66 14 -2.32 14 -3 14 C-3 16.64 -3 19.28 -3 22 C-4.98 22.99 -4.98 22.99 -7 24 C-6.29268391 20.08423982 -5.24772336 16.3596873 -4.0625 12.5625 C-3.72347656 11.47066406 -3.38445312 10.37882813 -3.03515625 9.25390625 C-2.05076879 6.15958641 -1.035171 3.07766086 0 0 Z " fill="#BD4D5C" transform="translate(230,144)"/>
<path d="M0 0 C3.3 0 6.6 0 10 0 C10.33 0.99 10.66 1.98 11 3 C11.7425 2.938125 12.485 2.87625 13.25 2.8125 C16.53862891 3.0367247 17.48661008 3.95787069 20 6 C21.64797236 6.71162443 23.31165408 7.39031953 25 8 C24.67 8.66 24.34 9.32 24 10 C19.36086779 8.50396977 14.8360852 6.80764433 10.3125 5 C9.64927734 4.73960938 8.98605469 4.47921875 8.30273438 4.2109375 C5.29289266 3.01063809 2.70766881 1.80511254 0 0 Z " fill="#C3646F" transform="translate(157,30)"/>
<path d="M0 0 C0.66 0.33 1.32 0.66 2 1 C0.625 3.5 0.625 3.5 -1 6 C-1.66 6 -2.32 6 -3 6 C-3.268125 6.598125 -3.53625 7.19625 -3.8125 7.8125 C-4.99917406 9.99847854 -6.09599113 11.41332594 -8 13 C-8.66 13 -9.32 13 -10 13 C-10.33 13.99 -10.66 14.98 -11 16 C-12.65 16.33 -14.3 16.66 -16 17 C-11.01595832 10.96668638 -5.58084697 5.4815829 0 0 Z " fill="#BD4C5A" transform="translate(153,79)"/>
<path d="M0 0 C2 2 2 2 2.125 5.625 C2.08375 6.73875 2.0425 7.8525 2 9 C2.66 9 3.32 9 4 9 C4.05791844 12.12492251 4.09356746 15.24970766 4.125 18.375 C4.14175781 19.26445313 4.15851563 20.15390625 4.17578125 21.0703125 C4.18222656 21.92109375 4.18867188 22.771875 4.1953125 23.6484375 C4.20578613 24.43395996 4.21625977 25.21948242 4.22705078 26.02880859 C4 28 4 28 2 30 C1.34 20.1 0.68 10.2 0 0 Z " fill="#C56B76" transform="translate(229,106)"/>
<path d="M0 0 C1.03253906 0.01353516 1.03253906 0.01353516 2.0859375 0.02734375 C3.76577838 0.05067487 5.44543746 0.08653674 7.125 0.125 C7.455 0.785 7.785 1.445 8.125 2.125 C6.76568359 2.18107422 6.76568359 2.18107422 5.37890625 2.23828125 C-1.92020269 2.63220141 -8.0738907 3.42800838 -14.875 6.125 C-14.75 4.25 -14.75 4.25 -13.875 2.125 C-9.34505613 -0.06424339 -4.93411506 -0.1243091 0 0 Z " fill="#BD5761" transform="translate(173.875,72.875)"/>
<path d="M0 0 C1.98 0 3.96 0 6 0 C6.24234375 0.53109375 6.4846875 1.0621875 6.734375 1.609375 C8.72915692 5.81376151 10.62379253 8.74437137 14 12 C14 12.99 14 13.98 14 15 C14.66 15.33 15.32 15.66 16 16 C15.34 16.66 14.68 17.32 14 18 C13.40832031 17.20335938 12.81664062 16.40671875 12.20703125 15.5859375 C8.25864997 10.28580547 4.31491141 5.01086486 0 0 Z " fill="#C86171" transform="translate(201,56)"/>
<path d="M0 0 C0 0.33 0 0.66 0 1 C-1.98 1 -3.96 1 -6 1 C-6 0.34 -6 -0.32 -6 -1 C-8.87526069 -0.8583467 -11.75013536 -0.71181468 -14.625 -0.5625 C-15.43324219 -0.52318359 -16.24148437 -0.48386719 -17.07421875 -0.44335938 C-21.45150865 -0.21203918 -25.68547281 0.16920917 -30 1 C-22.73819409 -6.26180591 -8.37462143 -3.94099832 0 0 Z " fill="#CD858C" transform="translate(91,76)"/>
<path d="M0 0 C0.66 1.32 1.32 2.64 2 4 C1.34 4 0.68 4 0 4 C-0.33 4.99 -0.66 5.98 -1 7 C-3.3125 9 -3.3125 9 -6 11 C-7.051875 11.8971875 -7.051875 11.8971875 -8.125 12.8125 C-8.74375 13.204375 -9.3625 13.59625 -10 14 C-10.99 13.67 -11.98 13.34 -13 13 C-8.71 8.71 -4.42 4.42 0 0 Z " fill="#C24D5A" transform="translate(39,195)"/>
<path d="M0 0 C0.66 0.33 1.32 0.66 2 1 C1.649375 1.763125 1.29875 2.52625 0.9375 3.3125 C-0.32360884 6.04759379 -0.32360884 6.04759379 1 9 C1.99 9.33 2.98 9.66 4 10 C4 11.65 4 13.3 4 15 C2.87411986 14.04270084 1.7493285 13.08412105 0.625 12.125 C-0.00148438 11.59132813 -0.62796875 11.05765625 -1.2734375 10.5078125 C-2.55836651 9.38567993 -3.79371975 8.20628025 -5 7 C-4.875 5.0625 -4.875 5.0625 -4 3 C-1.9375 1.25 -1.9375 1.25 0 0 Z " fill="#C76975" transform="translate(59,77)"/>
<path d="M0 0 C4.62 0 9.24 0 14 0 C14 0.66 14 1.32 14 2 C17.63 2 21.26 2 25 2 C24.67 2.66 24.34 3.32 24 4 C15.5657073 4.45636453 8.14043404 3.17423358 0 1 C0 0.67 0 0.34 0 0 Z " fill="#BF5A64" transform="translate(92,251)"/>
<path d="M0 0 C8.13636364 -0.31293706 8.13636364 -0.31293706 11 2 C11.75 4.625 11.75 4.625 12 7 C12.99 6.67 13.98 6.34 15 6 C15.33 7.98 15.66 9.96 16 12 C14.91481889 11.08552154 13.83195262 10.16829593 12.75 9.25 C12.10933594 8.70730469 11.46867188 8.16460937 10.80859375 7.60546875 C9 6 9 6 6.8125 3.5625 C6.214375 3.046875 5.61625 2.53125 5 2 C2.78141747 2.13641377 2.78141747 2.13641377 1 3 C0.67 2.01 0.34 1.02 0 0 Z " fill="#C55C6B" transform="translate(121,154)"/>
<path d="M0 0 C1.32 0.66 2.64 1.32 4 2 C0.04 5.96 -3.92 9.92 -8 14 C-8.66 13.01 -9.32 12.02 -10 11 C-9.01 11 -8.02 11 -7 11 C-7.33 10.01 -7.66 9.02 -8 8 C-7.34 8 -6.68 8 -6 8 C-5.67 7.01 -5.34 6.02 -5 5 C-4.34 5 -3.68 5 -3 5 C-3 4.34 -3 3.68 -3 3 C-2.01 2.67 -1.02 2.34 0 2 C0 1.34 0 0.68 0 0 Z " fill="#C76E78" transform="translate(67,208)"/>
<path d="M0 0 C1.32 0 2.64 0 4 0 C2.87548273 2.9719385 1.77706209 5.33440687 0 8 C-0.66 8 -1.32 8 -2 8 C-2.33 9.32 -2.66 10.64 -3 12 C-3.66 12 -4.32 12 -5 12 C-4.52697604 7.03324843 -3.20706202 3.84847443 0 0 Z " fill="#C04454" transform="translate(21,60)"/>
<path d="M0 0 C0.66 0.33 1.32 0.66 2 1 C2.625 3.5625 2.625 3.5625 3 6 C1.35 7.32 -0.3 8.64 -2 10 C-2 9.34 -2 8.68 -2 8 C-3.32 8 -4.64 8 -6 8 C-5.67 7.01 -5.34 6.02 -5 5 C-4.34 4.67 -3.68 4.34 -3 4 C-2.34 3.01 -1.68 2.02 -1 1 C-0.67 0.67 -0.34 0.34 0 0 Z " fill="#C41D32" transform="translate(80,192)"/>
<path d="M0 0 C0.58910156 0.21914062 1.17820313 0.43828125 1.78515625 0.6640625 C0.28776042 1.86848958 -1.20963542 3.07291667 -2.70703125 4.27734375 C-4.46776482 5.78676795 -4.46776482 5.78676795 -6.21484375 8.6640625 C-8.83840837 9.64921628 -11.46008498 10.08645179 -14.21484375 10.6640625 C-12.57009844 8.96947643 -10.90954224 7.30792004 -9.21484375 5.6640625 C-8.63734375 5.10203125 -8.05984375 4.54 -7.46484375 3.9609375 C-6.86671875 3.40921875 -6.26859375 2.8575 -5.65234375 2.2890625 C-5.09417969 1.76570312 -4.53601563 1.24234375 -3.9609375 0.703125 C-2.21484375 -0.3359375 -2.21484375 -0.3359375 0 0 Z " fill="#C96F7B" transform="translate(200.21484375,201.3359375)"/>
<path d="M0 0 C3.16115776 1.36983503 3.9927092 1.9890638 6 5 C3.69 7.31 1.38 9.62 -1 12 C-1.66 10.68 -2.32 9.36 -3 8 C-1.68 7.67 -0.36 7.34 1 7 C0.67 4.69 0.34 2.38 0 0 Z " fill="#C3606B" transform="translate(190,78)"/>
<path d="M0 0 C0.66 0.33 1.32 0.66 2 1 C-7.0625 10.32142857 -7.0625 10.32142857 -13 11 C-9.0299782 6.78185183 -4.69159716 3.38772897 0 0 Z " fill="#C86B78" transform="translate(62,18)"/>
<path d="M0 0 C2.31 0 4.62 0 7 0 C3.65834402 2.22777065 0.20158945 3.6892376 -3.5 5.1875 C-4.51513672 5.61579102 -4.51513672 5.61579102 -5.55078125 6.05273438 C-10.64605933 8.11798022 -10.64605933 8.11798022 -14 7 C-13.34 7 -12.68 7 -12 7 C-12 6.34 -12 5.68 -12 5 C-9.36 4.67 -6.72 4.34 -4 4 C-4 3.34 -4 2.68 -4 2 C-2.68 2 -1.36 2 0 2 C0 1.34 0 0.68 0 0 Z " fill="#CB7A84" transform="translate(180,243)"/>
<path d="M0 0 C2.97 0 5.94 0 9 0 C8.67 1.32 8.34 2.64 8 4 C7.87625 4.721875 7.7525 5.44375 7.625 6.1875 C7.41875 6.785625 7.2125 7.38375 7 8 C6.01 8.33 5.02 8.66 4 9 C4 8.01 4 7.02 4 6 C3.34 5.67 2.68 5.34 2 5 C2 3.68 2 2.36 2 1 C1.34 0.67 0.68 0.34 0 0 Z " fill="#B8202D" transform="translate(17,185)"/>
<path d="M0 0 C0 3.38023517 -0.87455622 5.83468937 -2 9 C-1.34 9 -0.68 9 0 9 C0.33 10.32 0.66 11.64 1 13 C-2.36591866 11.55746343 -4.51047079 9.66735273 -7 7 C-4.69 4.69 -2.38 2.38 0 0 Z " fill="#C56A76" transform="translate(63,225)"/>
<path d="M0 0 C1.65 0 3.3 0 5 0 C1.32167983 4.52615993 -2.41086363 8.39424999 -7 12 C-7 10.68 -7 9.36 -7 8 C-6.01 8 -5.02 8 -4 8 C-4 7.01 -4 6.02 -4 5 C-3.01 5 -2.02 5 -1 5 C-0.67 3.35 -0.34 1.7 0 0 Z " fill="#C15C68" transform="translate(223,211)"/>
<path d="M0 0 C-3.84344382 2.24538034 -7.9638019 3.1026736 -12.25 4.125 C-12.99507813 4.30675781 -13.74015625 4.48851562 -14.5078125 4.67578125 C-16.3375026 5.12147499 -18.16861575 5.56131959 -20 6 C-20 5.01 -20 4.02 -20 3 C-13.19925959 1.09579269 -7.08076251 -0.40850553 0 0 Z " fill="#CA7984" transform="translate(113,28)"/>
<path d="M0 0 C1.32 0.33 2.64 0.66 4 1 C1.71180854 2.50554634 -0.58021169 4.00457043 -2.875 5.5 C-3.85146484 6.14388672 -3.85146484 6.14388672 -4.84765625 6.80078125 C-9.7734375 10 -9.7734375 10 -12 10 C-12 9.01 -12 8.02 -12 7 C-11.01 7 -10.02 7 -9 7 C-9 6.34 -9 5.68 -9 5 C-8.34 5 -7.68 5 -7 5 C-6.67 4.34 -6.34 3.68 -6 3 C-4.35 3 -2.7 3 -1 3 C-0.67 2.01 -0.34 1.02 0 0 Z " fill="#CA7481" transform="translate(201,232)"/>
<path d="M0 0 C1 2 1 2 0.375 3.9375 C-1.34652077 6.51978116 -3.3532745 7.4391106 -6 9 C-6.33 9.99 -6.66 10.98 -7 12 C-7.66 12 -8.32 12 -9 12 C-9 12.66 -9 13.32 -9 14 C-10.32 13.67 -11.64 13.34 -13 13 C-8.71 8.71 -4.42 4.42 0 0 Z " fill="#CE898E" transform="translate(84,149)"/>
<path d="M0 0 C-1 2 -1 2 -3.5 2.9375 C-4.325 3.288125 -5.15 3.63875 -6 4 C-6.33 4.99 -6.66 5.98 -7 7 C-7.99 7 -8.98 7 -10 7 C-10.33 6.34 -10.66 5.68 -11 5 C-11.99 4.34 -12.98 3.68 -14 3 C-12.23050388 2.49528803 -10.45934777 1.99639315 -8.6875 1.5 C-7.70136719 1.2215625 -6.71523437 0.943125 -5.69921875 0.65625 C-3 0 -3 0 0 0 Z " fill="#C75F6B" transform="translate(164,223)"/>
<path d="M0 0 C0.99 0 1.98 0 3 0 C1.5140084 4.59306496 -0.85014682 7.43569245 -4 11 C-4.66 10.67 -5.32 10.34 -6 10 C-6 9.01 -6 8.02 -6 7 C-5.34 6.67 -4.68 6.34 -4 6 C-4.33 5.01 -4.66 4.02 -5 3 C-3.35 3 -1.7 3 0 3 C0 2.01 0 1.02 0 0 Z " fill="#C55E69" transform="translate(235,197)"/>
<path d="M0 0 C1.53445094 3.06890187 0.54984289 5.70094266 0 9 C-0.928125 9.12375 -0.928125 9.12375 -1.875 9.25 C-4.18346804 9.78810733 -4.18346804 9.78810733 -5 12 C-6 14 -6 14 -8.125 14.75 C-9.053125 14.87375 -9.053125 14.87375 -10 15 C-7.19921875 10.79882812 -7.19921875 10.79882812 -4.3984375 6.59765625 C-3.85445312 5.78167969 -3.31046875 4.96570313 -2.75 4.125 C-2.22921875 3.34382812 -1.7084375 2.56265625 -1.171875 1.7578125 C-0.59179688 0.88769531 -0.59179688 0.88769531 0 0 Z " fill="#C8717A" transform="translate(217,178)"/>
<path d="M0 0 C1.50472922 3.00945843 0.88005163 4.79409763 0 8 C-2.375 10.875 -2.375 10.875 -5 13 C-5.99 13 -6.98 13 -8 13 C-6.40956621 7.91061189 -3.2553049 4.12543357 0 0 Z " fill="#C45562" transform="translate(30,47)"/>
<path d="M0 0 C4.42679007 1.47559669 4.91432696 3.90057368 7 8 C7 8.66 7 9.32 7 10 C6.34 10 5.68 10 5 10 C4.67 9.34 4.34 8.68 4 8 C3.01 8.495 3.01 8.495 2 9 C0.93347808 6.69631264 -0.06421005 4.35981813 -1 2 C-0.67 1.34 -0.34 0.68 0 0 Z " fill="#C55866" transform="translate(236,57)"/>
<path d="M0 0 C2.0839403 0.11443603 4.16716493 0.24195547 6.25 0.375 C7.41015625 0.44460937 8.5703125 0.51421875 9.765625 0.5859375 C12.70694334 0.96248308 14.49949011 1.4774123 17 3 C14.72975032 3.08097324 12.45867925 3.13917704 10.1875 3.1875 C8.29064453 3.23970703 8.29064453 3.23970703 6.35546875 3.29296875 C3 3 3 3 1.05078125 1.48828125 C0.70402344 0.99714844 0.35726562 0.50601562 0 0 Z " fill="#C86D77" transform="translate(143,0)"/>
<path d="M0 0 C0.66 0.99 1.32 1.98 2 3 C0.47005208 4.23697917 -1.05989583 5.47395833 -2.58984375 6.7109375 C-4.13266437 7.9666391 -4.13266437 7.9666391 -5 10 C-6.32 9.67 -7.64 9.34 -9 9 C-6.03 6.03 -3.06 3.06 0 0 Z " fill="#C9707C" transform="translate(13,221)"/>
<path d="M0 0 C1.17539996 0.92652701 2.34010577 1.86663387 3.5 2.8125 C4.1496875 3.33457031 4.799375 3.85664063 5.46875 4.39453125 C7 6 7 6 7 9 C5.576875 8.4740625 5.576875 8.4740625 4.125 7.9375 C1.12939828 6.64973223 1.12939828 6.64973223 -1 8 C-0.67 5.36 -0.34 2.72 0 0 Z " fill="#C65866" transform="translate(166,150)"/>
<path d="M0 0 C0.99 0 1.98 0 3 0 C3 1.98 3 3.96 3 6 C3.66 6 4.32 6 5 6 C5 7.32 5 8.64 5 10 C5.99 10.33 6.98 10.66 8 11 C7.01 12.485 7.01 12.485 6 14 C4.9923048 12.2335343 3.99408286 10.46166177 3 8.6875 C2.443125 7.70136719 1.88625 6.71523437 1.3125 5.69921875 C0 3 0 3 0 0 Z " fill="#CC7983" transform="translate(14,180)"/>
<path d="M0 0 C7.50769231 0.61538462 7.50769231 0.61538462 10 2.5625 C10.33 3.036875 10.66 3.51125 11 4 C4.64102564 5.34516765 4.64102564 5.34516765 1.5625 3.6875 C0 2 0 2 0 0 Z " fill="#C25160" transform="translate(104,225)"/>
<path d="M0 0 C1.79378179 2.69067269 2.97313958 5.08578257 4.1875 8.0625 C4.55230469 8.94035156 4.91710938 9.81820312 5.29296875 10.72265625 C6 13 6 13 5 15 C2 13 2 13 1.26953125 10.9765625 C1.11871094 10.20054687 0.96789063 9.42453125 0.8125 8.625 C0.65394531 7.85414063 0.49539062 7.08328125 0.33203125 6.2890625 C0 4 0 4 0 0 Z " fill="#C87480" transform="translate(36,162)"/>
<path d="M0 0 C3.375 0.25 3.375 0.25 7 1 C8.5 2.8125 8.5 2.8125 9 5 C8.70549668 6.34244429 8.37683609 7.67830282 8 9 C6.66368764 7.6905332 5.33102075 6.37734515 4 5.0625 C3.2575 4.33160156 2.515 3.60070312 1.75 2.84765625 C0 1 0 1 0 0 Z " fill="#C86775" transform="translate(84,113)"/>
<path d="M0 0 C3.81684226 1.55500981 6.19195732 4.03595495 9 7 C2.25 6.25 2.25 6.25 0 4 C0 2.68 0 1.36 0 0 Z " fill="#C25966" transform="translate(117,102)"/>
<path d="M0 0 C0.144375 0.639375 0.28875 1.27875 0.4375 1.9375 C1.28989171 5.06293628 2.08933409 5.05955606 5 7 C3.35 7.66 1.7 8.32 0 9 C-1.5625 7.75 -1.5625 7.75 -3 6 C-2.72963853 3.02602384 -2.14553974 2.14553974 0 0 Z " fill="#C96C78" transform="translate(3,231)"/>
<path d="M0 0 C1.32 0 2.64 0 4 0 C2.74194623 4.50802601 1.09592835 7.4912812 -2 11 C-2.19622241 6.78121808 -1.80230168 3.82989106 0 0 Z " fill="#CC717B" transform="translate(241,185)"/>
<path d="M0 0 C1.29045774 4.39346681 0.93898651 7.52175666 0 12 C-2.0625 13.5 -2.0625 13.5 -4 14 C-3.21824485 9.15311808 -1.60155722 4.6233633 0 0 Z " fill="#CB7981" transform="translate(227,154)"/>
<path d="M0 0 C1.32 0.33 2.64 0.66 4 1 C4 1.66 4 2.32 4 3 C4.66 3.33 5.32 3.66 6 4 C4.35 5.32 2.7 6.64 1 8 C-0.35439668 5.29120665 -0.06501451 2.99066732 0 0 Z " fill="#C03949" transform="translate(164,105)"/>
<path d="M0 0 C4.74018901 1.83491188 9.36413251 3.91941459 14 6 C14 6.33 14 6.66 14 7 C9.09767698 7.61279038 4.97056398 5.77382858 1 3 C0.67 2.01 0.34 1.02 0 0 Z " fill="#C9737D" transform="translate(80,215)"/>
<path d="M0 0 C0.33 0.99 0.66 1.98 1 3 C2.98 2.34 4.96 1.68 7 1 C6.67 2.32 6.34 3.64 6 5 C3.03 4.67 0.06 4.34 -3 4 C-2.01 2.68 -1.02 1.36 0 0 Z " fill="#C5404E" transform="translate(25,209)"/>
<path d="M0 0 C0.99 0 1.98 0 3 0 C2.65120368 3.25543229 1.97866739 4.01873107 -0.5625 6.25 C-1.366875 6.8275 -2.17125 7.405 -3 8 C-3.33 6.35 -3.66 4.7 -4 3 C-3.01 3 -2.02 3 -1 3 C-0.67 2.01 -0.34 1.02 0 0 Z " fill="#C9737A" transform="translate(41,179)"/>
<path d="M0 0 C1.17539996 0.92652701 2.34010577 1.86663387 3.5 2.8125 C4.1496875 3.33457031 4.799375 3.85664063 5.46875 4.39453125 C7 6 7 6 7 9 C6.67 8.34 6.34 7.68 6 7 C2.97065509 6.34227572 2.97065509 6.34227572 0 6 C0 4.02 0 2.04 0 0 Z " fill="#C96874" transform="translate(177,161)"/>
<path d="M0 0 C1.17539996 0.92652701 2.34010577 1.86663387 3.5 2.8125 C4.1496875 3.33457031 4.799375 3.85664063 5.46875 4.39453125 C7 6 7 6 7 9 C4.0625 7.875 4.0625 7.875 1 6 C0.125 2.8125 0.125 2.8125 0 0 Z " fill="#C5626F" transform="translate(150,134)"/>
<path d="M0 0 C-1.44390925 3.80666984 -3.34952803 5.26602582 -7 7 C-7.66 6.67 -8.32 6.34 -9 6 C-8.07213211 4.99105628 -7.13231567 3.99309093 -6.1875 3 C-5.66542969 2.443125 -5.14335938 1.88625 -4.60546875 1.3125 C-3 0 -3 0 0 0 Z " fill="#C4616D" transform="translate(102,134)"/>
<path d="M0 0 C1 4 1 4 1 4 Z M-1 4 C0.5 5.1875 0.5 5.1875 2 7 C2.1875 9.6875 2.1875 9.6875 2 12 C0.68 11.01 -0.64 10.02 -2 9 C-1.67 7.35 -1.34 5.7 -1 4 Z " fill="#C24453" transform="translate(95,114)"/>
<path d="M0 0 C0.08159574 4.16138263 -0.01751476 7.9472484 -1 12 C-3.32590854 8.36576791 -3.16265833 5.22911669 -3 1 C-1 0 -1 0 0 0 Z " fill="#C25160" transform="translate(33,98)"/>
<path d="M0 0 C4.62 0 9.24 0 14 0 C14.33 0.99 14.66 1.98 15 3 C9.99109914 2.38487182 4.99367864 1.7282448 0 1 C0 0.67 0 0.34 0 0 Z " fill="#CE808B" transform="translate(141,27)"/>
<path d="M0 0 C7.75 0.875 7.75 0.875 10 2 C10 2.99 10 3.98 10 5 C8.51800098 4.55090939 7.03944764 4.09043436 5.5625 3.625 C4.73878906 3.36976563 3.91507812 3.11453125 3.06640625 2.8515625 C1 2 1 2 0 0 Z " fill="#C66875" transform="translate(71,242)"/>
<path d="M0 0 C0 3.69418201 -1.28179295 5.77836178 -3 9 C-4.65 9 -6.3 9 -8 9 C-7.04270084 7.87411986 -6.08412105 6.7493285 -5.125 5.625 C-4.59132812 4.99851563 -4.05765625 4.37203125 -3.5078125 3.7265625 C-2.38567993 2.44163349 -1.20628025 1.20628025 0 0 Z " fill="#C25662" transform="translate(52,182)"/>
<path d="M0 0 C1.1875 1.5625 1.1875 1.5625 2 4 C0.625 7.75 0.625 7.75 -1 11 C-1.33 11 -1.66 11 -2 11 C-2.33 8.69 -2.66 6.38 -3 4 C-2.01 3.67 -1.02 3.34 0 3 C0 2.01 0 1.02 0 0 Z " fill="#C66873" transform="translate(247,174)"/>
<path d="M0 0 C2.475 0.495 2.475 0.495 5 1 C5 1.66 5 2.32 5 3 C6.32 3.33 7.64 3.66 9 4 C8.34 5.32 7.68 6.64 7 8 C5.83035398 6.8572081 4.66435444 5.71068285 3.5 4.5625 C2.8503125 3.92441406 2.200625 3.28632812 1.53125 2.62890625 C0 1 0 1 0 0 Z " fill="#CA737F" transform="translate(193,48)"/>
<path d="M0 0 C0.99 0.33 1.98 0.66 3 1 C1 2.5 1 2.5 -1 4 C-1.70125 4.556875 -2.4025 5.11375 -3.125 5.6875 C-5 7 -5 7 -7 7 C-7 5.68 -7 4.36 -7 3 C-3.535 2.505 -3.535 2.505 0 2 C0 1.34 0 0.68 0 0 Z " fill="#C86A76" transform="translate(78,39)"/>
<path d="M0 0 C3.67230705 3.07999946 4.56802365 5.2482602 5 10 C3.0625 8.9375 3.0625 8.9375 1 7 C0.25 3.3125 0.25 3.3125 0 0 Z " fill="#C24657" transform="translate(136,160)"/>
<path d="M0 0 C0.33 0.66 0.66 1.32 1 2 C-0.2680467 5.80414011 -1.57913212 6.09067839 -5 8 C-6.34631825 8.98244845 -7.68441297 9.97676564 -9 11 C-7.59155282 7.78475695 -5.89655214 5.67816132 -3.375 3.25 C-2.74335938 2.63640625 -2.11171875 2.0228125 -1.4609375 1.390625 C-0.73777344 0.70226562 -0.73777344 0.70226562 0 0 Z " fill="#DCA9AF" transform="translate(136,96)"/>
<path d="M0 0 C0 1.32 0 2.64 0 4 C-2.875 4.625 -2.875 4.625 -6 5 C-6.66 4.34 -7.32 3.68 -8 3 C-2.25 0 -2.25 0 0 0 Z " fill="#CC6E78" transform="translate(179,216)"/>
<path d="M0 0 C0.6875 1.8125 0.6875 1.8125 1 4 C-0.64504011 6.46756016 -1.80299352 6.94960299 -4.6875 7.6875 C-5.8321875 7.8421875 -5.8321875 7.8421875 -7 8 C-6.02133662 6.85373678 -5.04205413 5.70800212 -4.0625 4.5625 C-3.51722656 3.92441406 -2.97195312 3.28632813 -2.41015625 2.62890625 C-1.63204305 1.73008851 -0.84063472 0.84063472 0 0 Z " fill="#C9717C" transform="translate(21,213)"/>
<path d="M0 0 C1.17539996 0.92652701 2.34010577 1.86663387 3.5 2.8125 C4.1496875 3.33457031 4.799375 3.85664063 5.46875 4.39453125 C7 6 7 6 7 9 C6.67 8.34 6.34 7.68 6 7 C5.360625 6.9175 4.72125 6.835 4.0625 6.75 C3.381875 6.5025 2.70125 6.255 2 6 C0.75 2.9375 0.75 2.9375 0 0 Z " fill="#CA6E7A" transform="translate(158,142)"/>
<path d="M0 0 C2.475 0.99 2.475 0.99 5 2 C5.6875 4.0625 5.6875 4.0625 6 6 C6.66 6.33 7.32 6.66 8 7 C7.34 7.66 6.68 8.32 6 9 C4.02 6.03 2.04 3.06 0 0 Z " fill="#CC7782" transform="translate(209,65)"/>
<path d="M0 0 C0.99 0 1.98 0 3 0 C3 0.99 3 1.98 3 3 C2.34 3 1.68 3 1 3 C0.67 4.32 0.34 5.64 0 7 C-0.66 7 -1.32 7 -2 7 C-1.125 1.125 -1.125 1.125 0 0 Z " fill="#C15361" transform="translate(18,65)"/>
<path d="M0 0 C1 2 1 2 0.4375 4.5625 C-1 7 -1 7 -4.125 7.8125 C-5.548125 7.9053125 -5.548125 7.9053125 -7 8 C-6.02133662 6.85373678 -5.04205413 5.70800212 -4.0625 4.5625 C-3.51722656 3.92441406 -2.97195312 3.28632813 -2.41015625 2.62890625 C-1.63204305 1.73008851 -0.84063472 0.84063472 0 0 Z " fill="#C35A69" transform="translate(71,217)"/>
<path d="M0 0 C0.99 0 1.98 0 3 0 C3.33 0.99 3.66 1.98 4 3 C2.35 4.32 0.7 5.64 -1 7 C-0.67 4.69 -0.34 2.38 0 0 Z " fill="#C66874" transform="translate(79,195)"/>
<path d="M0 0 C0.78375 0.04125 1.5675 0.0825 2.375 0.125 C0.725 2.105 -0.925 4.085 -2.625 6.125 C-3.285 4.805 -3.945 3.485 -4.625 2.125 C-2.625 0.125 -2.625 0.125 0 0 Z " fill="#C35561" transform="translate(105.625,170.875)"/>
<path d="M0 0 C3 2 3 2 3.6875 5.125 C3.8421875 6.548125 3.8421875 6.548125 4 8 C2.68 8.33 1.36 8.66 0 9 C0 6.03 0 3.06 0 0 Z " fill="#C23F4E" transform="translate(174,158)"/>
<path d="M0 0 C1.43836751 0.11458693 2.87570966 0.24209116 4.3125 0.375 C5.51326172 0.47941406 5.51326172 0.47941406 6.73828125 0.5859375 C9 1 9 1 12 3 C8.69564916 4.12377697 6.9493138 3.89554742 3.75 2.5625 C3.04359375 2.27503906 2.3371875 1.98757812 1.609375 1.69140625 C1.07828125 1.46324219 0.5471875 1.23507813 0 1 C0 0.67 0 0.34 0 0 Z " fill="#C6737D" transform="translate(81,247)"/>
<path d="M0 0 C0.99 0.33 1.98 0.66 3 1 C2.67 1.99 2.34 2.98 2 4 C-1.5625 5.1875 -1.5625 5.1875 -5 6 C-4.67 5.01 -4.34 4.02 -4 3 C-2.68 3 -1.36 3 0 3 C0 2.01 0 1.02 0 0 Z " fill="#C16771" transform="translate(187,182)"/>
<path d="M0 0 C0.99 0 1.98 0 3 0 C1.60667426 3.36720387 0.0210714 4.9859524 -3 7 C-2.67 5.35 -2.34 3.7 -2 2 C-1.34 2 -0.68 2 0 2 C0 1.34 0 0.68 0 0 Z " fill="#BC505C" transform="translate(97,178)"/>
<path d="M0 0 C0.66 0.33 1.32 0.66 2 1 C0.32482761 4.53647504 -0.49280817 5.7911563 -4.1875 7.3125 C-5.5796875 7.6528125 -5.5796875 7.6528125 -7 8 C-6.02133662 6.85373678 -5.04205413 5.70800212 -4.0625 4.5625 C-3.51722656 3.92441406 -2.97195312 3.28632812 -2.41015625 2.62890625 C-1.63204305 1.73008851 -0.84063472 0.84063472 0 0 Z " fill="#CF8D94" transform="translate(153,79)"/>
<path d="M0 0 C2.475 0.495 2.475 0.495 5 1 C5 2.65 5 4.3 5 6 C4.01 6.495 4.01 6.495 3 7 C0 2.25 0 2.25 0 0 Z " fill="#C95D6B" transform="translate(216,74)"/>
<path d="M0 0 C1.16959987 0.97566112 2.33561177 1.955625 3.5 2.9375 C4.1496875 3.48277344 4.799375 4.02804688 5.46875 4.58984375 C5.9740625 5.05519531 6.479375 5.52054688 7 6 C7 6.33 7 6.66 7 7 C5.35 7 3.7 7 2 7 C1.34 4.69 0.68 2.38 0 0 Z " fill="#CA707B" transform="translate(217,33)"/>
<path d="M0 0 C0.66 0.33 1.32 0.66 2 1 C0.35 3.64 -1.3 6.28 -3 9 C-3.33 8.34 -3.66 7.68 -4 7 C-4.66 6.67 -5.32 6.34 -6 6 C-4.02 4.02 -2.04 2.04 0 0 Z " fill="#CC737D" transform="translate(46,30)"/>
<path d="M0 0 C4.21912747 0.4794463 6.79663178 1.16625119 10 4 C6.05272412 4.17942163 3.4019487 4.09350689 0 2 C0 1.34 0 0.68 0 0 Z " fill="#C5727C" transform="translate(178,9)"/>
<path d="M0 0 C2.0625 0.4375 2.0625 0.4375 4 1 C2.1875 3 2.1875 3 0 5 C-0.99 5 -1.98 5 -3 5 C-1.125 1.125 -1.125 1.125 0 0 Z " fill="#C1616E" transform="translate(198,201)"/>
<path d="M0 0 C1.66611905 -0.042721 3.33382885 -0.04063832 5 0 C6 1 6 1 6.0625 3.5625 C6.041875 4.366875 6.02125 5.17125 6 6 C3.97945196 4.35830472 1.97956942 2.69088222 0 1 C0 0.67 0 0.34 0 0 Z " fill="#CB707B" transform="translate(57,86)"/>
<path d="M0 0 C1.32 0.33 2.64 0.66 4 1 C2.35 2.65 0.7 4.3 -1 6 C-1.33 4.68 -1.66 3.36 -2 2 C-1.34 2 -0.68 2 0 2 C0 1.34 0 0.68 0 0 Z " fill="#C65B67" transform="translate(53,58)"/>
<path d="M0 0 C0.66 0.33 1.32 0.66 2 1 C-0.52788007 3.79872437 -2.20411134 5.45773019 -6 6 C-3.375 1.125 -3.375 1.125 0 0 Z " fill="#B52A38" transform="translate(51,28)"/>
<path d="M0 0 C0.99 0 1.98 0 3 0 C1.60667426 3.36720387 0.0210714 4.9859524 -3 7 C-3 5.68 -3 4.36 -3 3 C-2.01 3 -1.02 3 0 3 C0 2.01 0 1.02 0 0 Z " fill="#BC535D" transform="translate(219,216)"/>
<path d="M0 0 C0.66 0.33 1.32 0.66 2 1 C2 1.99 2 2.98 2 4 C0.02 4.99 0.02 4.99 -2 6 C-2.66 5.34 -3.32 4.68 -4 4 C-2.68 2.68 -1.36 1.36 0 0 Z " fill="#C25963" transform="translate(76,212)"/>
<path d="M0 0 C0.99 0.66 1.98 1.32 3 2 C0.6875 4.0625 0.6875 4.0625 -2 6 C-2.99 5.67 -3.98 5.34 -5 5 C-3.35 3.35 -1.7 1.7 0 0 Z " fill="#C86371" transform="translate(31,203)"/>
<path d="M0 0 C2.31 0 4.62 0 7 0 C5.35 1.65 3.7 3.3 2 5 C1.34 3.35 0.68 1.7 0 0 Z " fill="#C35362" transform="translate(172,99)"/>
<path d="M0 0 C1.67542976 0.28604898 3.34385343 0.61781233 5 1 C3.35 2.65 1.7 4.3 0 6 C-0.38218767 4.34385343 -0.71395102 2.67542976 -1 1 C-0.67 0.67 -0.34 0.34 0 0 Z " fill="#C65A68" transform="translate(182,90)"/>
<path d="M0 0 C0.33 0.66 0.66 1.32 1 2 C-1.45454545 7.72727273 -1.45454545 7.72727273 -4 9 C-3.46930939 5.17902761 -2.50298434 2.93828597 0 0 Z " fill="#CC757F" transform="translate(30,47)"/>
<path d="M0 0 C2.64 0.33 5.28 0.66 8 1 C8 1.99 8 2.98 8 4 C5.64828869 3.40138258 3.3140622 2.73075648 1 2 C0.67 1.34 0.34 0.68 0 0 Z " fill="#CA7680" transform="translate(5,240)"/>
<path d="M0 0 C3.375 -0.1875 3.375 -0.1875 7 0 C7.66 0.99 8.32 1.98 9 3 C6.66666667 3 4.33333333 3 2 3 C1.34 2.01 0.68 1.02 0 0 Z " fill="#CC7C85" transform="translate(121,154)"/>
<path d="M0 0 C0.33 1.32 0.66 2.64 1 4 C0.01 4.66 -0.98 5.32 -2 6 C-2.99 5.67 -3.98 5.34 -5 5 C-3.35 3.35 -1.7 1.7 0 0 Z " fill="#CF8089" transform="translate(142,90)"/>
</svg>
