<svg xmlns="http://www.w3.org/2000/svg" width="256" height="240"><path d="M172 77c12.557 14.843 16.404 33.645 15.21 52.62-1.697 19.227-11.68 37.777-26.21 50.38-16.208 13.331-36.033 19.781-57 18-14.513-1.607-30.004-7.134-41-17l-2.148-1.691c-9.157-7.485-15.107-17.005-19.852-27.684l-.881-1.98c-1.761-4.19-2.942-8.092-3.119-12.645 1.438-1.938 1.438-1.938 3-3a894.533 894.533 0 0 1 1.5 4.813l.844 2.707C43 144 43 144 43 147h2l.832-1.777C47 143 47 143 48.324 141.246c3.137-4.162 3.978-6.767 3.364-11.996l-.489-2.734c-.236-2.98.099-4.08 1.801-6.516 2.164-1.922 2.164-1.922 4.625-3.75l2.477-1.86L62 113c7.263 4.323 11.323 8.968 14 17 2.494 2.364 2.494 2.364 5 4-.74 4.287-2.618 5.926-5.887 8.613-2.907 1.908-5.854 2.85-9.195 3.746-2.127.552-2.127.552-3.918 2.641a88.628 88.628 0 0 1-5.438 1.5c-3.47.85-5.552 1.493-8.562 3.5 1.366 3.792 3.105 6.844 5.438 10.125l1.808 2.57c1.651 2.287 1.651 2.287 3.477 3.985C60 172 60 172 60 174l1.695.766c2.643 1.415 4.821 3.134 7.18 4.984 16.04 11.737 35.461 15.344 54.895 12.746 17.234-3.325 34.29-12.275 44.855-26.746 1.44-2.88 1.748-4.577 1.375-7.75-3.711-1.237-4.547-.644-8 1a156.584 156.584 0 0 0-5 3 585.281 585.281 0 0 1-.063-4.375l-.035-2.46C157 153 157 153 158 151l-3-1v-4l-4-1v2l-1.898.516-2.477.734-2.46.703c-2.687 1.3-2.888 2.433-4.165 5.047-2.094 1.266-2.094 1.266-4.5 2.25l-2.406 1.016C131 158 131 158 129 158l-.438 2.875C128 164 128 164 127 166c-3.063.625-3.063.625-6 1l-1 3c-3.504 3.004-5.137 4.042-9.813 3.813C107 173 107 173 106 172c-.153-2.267-.222-4.54-.25-6.813l-.078-3.769c.357-3.718 1.081-4.608 3.328-7.418.572-2.809.572-2.809.688-5.75l.199-2.984L110 143l-2.082-.777c-7.084-3.01-7.084-3.01-9.356-6.313-1.502-3.924-1.97-6.878-.437-10.847C100 122 100 122 103 120c2.688-.125 2.688-.125 5 0l.875-2.188L112 110l6 1v-6l-2-1 1-4h3l1-3h3v9h5l-.125-3.313C129 99 129 99 131 96a168.166 168.166 0 0 1 6-2l2.375-1.688c2.974-1.486 5.206-1.756 8.5-1.238 3.754 1.636 5.914 4.808 8.363 7.992L158 101h3l1 2v-2h2v2l6 2v-2l-4-2c1.006-2.676 1.542-3.779 4.164-5.047l2.461-.703 2.477-.734L177 94l-1.277-2.555L170 80l2-3zm-2 22c-.448 4.126-.448 4.126 2.5 6.75L175 108l1.375-2.438C178 103 178 103 180 102v-4c-4.054-1.158-6.218-.837-10 1zm-18 3 1 2 1-2h-2zm-6 38v3l3-1h-2l-1-2zm-10 1v5h1v-5h-1z" fill="#FAFAFA"/><path d="M188 23c8.91-.779 8.91-.779 12.625 1.875L203 28c1.346 1.756 2.7 3.506 4.063 5.25l1.972 2.64c2.11 2.267 3.015 2.595 5.965 3.11l2 2-.527 1.89c-.718 2.142-.718 2.142.523 4.032l1.441 1.828 1.434 1.86L221 52l1.633-.438C232.947 49.236 243.493 49.82 254 50l2 4c-8.538 5.383-17.62 8.48-27.625 9.75-2.383.315-2.383.315-4.375 1.25-1.813 2.687-2.271 4.773-3 8l2 1-1 6h-4l-.348 2.027c-3.425 15.611-3.425 15.611-9.203 19.84-3.176 1.26-6.021 2.133-9.449 2.133 1.245-7.728 3.483-15.032 5.879-22.46.584-1.844 1.156-3.694 1.586-5.58.853-3.123 2.226-6 3.535-8.96l-3.113.402C195.578 68.85 184.424 70.223 173 70l-.313 2.125c-.832 3.48-1.644 5.91-3.687 8.875-2.693 1.123-5.087 1.522-8 2l.754-2.125c.875-3.111 1.362-5.638 1.246-8.875-2.31-3.611-5.45-5.674-9-8l-2.715-1.871C139.987 54.922 127.372 51.279 114 51l7 1 1 3c2 1.209 2 1.209 4 2v4h5v3l-2.375.688L126 66c-.39 1.202-.39 1.202-.79 2.428C124 71 124 71 121.343 72.394l-3.338 1.063-3.631 1.182-3.81 1.174-3.8 1.232C97.522 80 97.522 80 94 80c.753-7.404.753-7.404 2.063-10.563C97.69 65.204 97.416 61.25 96 57l-5-1v-3l-6 3 .91 2.23 1.153 2.958 1.16 2.917c1.032 3.843.536 6.378-1.223 9.895l-4-1c-.95-3.695-.95-6.305 0-10l-5-1-2 6h-4v-2l-6 3 5 9h3l2-6h4l.75 1.813c1.107 2.325 1.107 2.325 3.375 3.562L86 79c.117 3.102.117 3.102 0 6a1458.25 1458.25 0 0 1-7.313 4l-2.091 1.156C71.34 93 71.34 93 68 93v2l-2.938.813L62 97l-1 3-2-3c-3.557-1.219-3.557-1.219-7-2-2.277 2.815-2.277 2.815-2 6h5l-2 5c-4 0-4 0-6.625-2.438L44 101l-2-1-.367 3.035-.508 4.028-.238 1.99C40.316 113.51 39.518 117.747 38 122l-3 2c.587-20.958 7.254-41.428 22.3-56.64C74.92 51.957 95.57 44.676 119 46c9.107.872 16.77 3.483 25 7.313l2.392 1.11C153.35 57.84 158.648 62.435 164 68l-1.531-2.59-1.969-3.347-1.969-3.34C157 56 157 56 157 55c4.123-.064 7.673-.115 10.934 2.625 1.461 1.738 2.808 3.485 4.066 5.375 11.769-2.667 23.397-5.689 35-9-2.581-4.585-2.581-4.585-7-7l-.344-2.241c-.672-2.824-1.545-4.51-3.16-6.896l-1.494-2.248-1.565-2.303a1021.916 1021.916 0 0 1-3.066-4.574l-1.377-2.03C188 25 188 25 188 23zm-24 47 1 2z" fill="#F6F6F6"/><path d="M62 113c7.263 4.323 11.323 8.968 14 17 2.494 2.364 2.494 2.364 5 4-.74 4.287-2.618 5.926-5.887 8.613-2.907 1.908-5.854 2.85-9.195 3.746-2.127.552-2.127.552-3.918 2.641a88.628 88.628 0 0 1-5.438 1.5c-3.47.85-5.552 1.493-8.562 3.5 1.366 3.792 3.105 6.844 5.438 10.125l1.808 2.57c1.651 2.287 1.651 2.287 3.477 3.985C60 172 60 172 60 174l1.695.766c2.643 1.415 4.821 3.134 7.18 4.984 16.04 11.737 35.461 15.344 54.895 12.746 16.33-3.15 33.608-11.456 43.57-25.367l.972-1.629C170 163 170 163 172.75 162.125L175 162c-1.458 4.605-4.075 7.773-7.313 11.25l-1.603 1.723c-14.504 15.098-33.93 22.983-54.772 23.464C94.239 197.84 75.969 192.637 63 181l-2.148-1.691c-9.157-7.485-15.107-17.005-19.852-27.684l-.881-1.98c-1.761-4.19-2.942-8.092-3.119-12.645 1.438-1.938 1.438-1.938 3-3a894.533 894.533 0 0 1 1.5 4.813l.844 2.707C43 144 43 144 43 147h2l.832-1.777C47 143 47 143 48.324 141.246c3.137-4.162 3.978-6.767 3.364-11.996l-.489-2.734c-.236-2.98.099-4.08 1.801-6.516 2.164-1.922 2.164-1.922 4.625-3.75l2.477-1.86L62 113z" fill="#F8F8F8"/><path d="M157 70v1l-1.727.3C124.43 76.822 93.787 86.801 68 105c-1.034.73-2.068 1.46-3.133 2.21-14.672 10.696-30.65 23.913-34.055 42.665l-.417 2.805C30 155 30 155 29 157c-2.305-3.17-3.619-5.812-3.402-9.8C27.562 136.463 33.18 128.26 40 120l1.527-1.988c21.82-27.513 63.78-43.278 97.391-47.778 6.026-.458 12.042-.384 18.082-.234z" fill="#F0F0F0"/><path d="M47 156c3.366 3.12 5.717 6.846 8.281 10.625 1.606 2.358 1.606 2.358 3.438 4.063C60 172 60 172 60 174l1.695.766c2.643 1.415 4.821 3.134 7.18 4.984 16.04 11.737 35.461 15.344 54.895 12.746 16.33-3.15 33.608-11.456 43.57-25.367l.972-1.629C170 163 170 163 172.75 162.125L175 162c-1.458 4.605-4.075 7.773-7.313 11.25l-1.603 1.723c-14.504 15.098-33.93 22.983-54.772 23.464C94.258 197.84 75.944 192.647 63 181l-2.184-1.762C55.011 174.412 49.366 168.832 46 162c.29-3.336.29-3.336 1-6zM47 28l3 1v3c-1.793 1.684-1.793 1.684-4.188 3.438l-2.355 1.746L41 39C21.328 53.883 10.544 79.735 6.418 103.328 4.641 118.942 6.241 133.822 10 149l.58 2.345c.468 1.886.944 3.77 1.42 5.655l-4 1c-9.491-29.27-10.083-60.168 3.75-88.25C20.017 53.71 31.833 38.111 47 28z" fill="#EBEBEB"/><path d="M74 6a4523.24 4523.24 0 0 1 6 11.375l1.734 3.273 1.641 3.125 1.523 2.889C86 29 86 29 86 31l-6 1-6-12-1 13-5 1c-2.238-1.871-2.238-1.871-4.313-4.438l-2.113-2.558L60 25l.656 2.266.844 2.984.844 2.953C63 36 63 36 63 40l-5 1a1642.121 1642.121 0 0 1-3.563-11.25L53.4 26.527l-.966-3.105-.905-2.857c-.543-2.635-.418-4.06.471-6.565l6-1 9 11V8c5-2 5-2 7-2z" fill="#EFEFEF"/><path d="M37.375 181.625C39.671 184.98 40.321 187.948 40 192c-2.319 4.823-5.225 7.612-10 10-4.148.799-7.199.488-10.875-1.75C15.94 196.878 15 195.4 15 190.687c1.28-4.721 3.331-7.498 7-10.687 5.617-2.988 10.214-1.906 15.375 1.625zM22 188c-1.067 3.546-1.067 3.546-1 7 1.814 2.19 1.814 2.19 4.313 2.438 3.79-.618 5.209-2.616 7.687-5.438l1-1c.25-2.458.25-2.458 0-5-1.81-2.2-1.81-2.2-4.313-2.375-3.686.514-5.17 1.648-7.687 4.375z" fill="#F0F0F0"/><path d="M71 207c11.406 2.873 11.406 2.873 14 7 .563 2.938.563 2.938 0 6l-2.563 2.25c-2.691 2.455-2.691 2.455-2.546 5.285A86.07 86.07 0 0 0 81 235c-2.375.125-2.375.125-5 0-2-2-2-2-2.438-5.5L73 226l-3-2-1 7-6-1c6.188-21.188 6.188-21.188 8-23zm4 6-3 7c2.397.68 2.397.68 5 1l2-2c-.32-2.603-.32-2.603-1-5l-3-1zM179 200c2.438 1.625 2.438 1.625 4 4 .315 3.145.42 5.16-1 8l2.813.813c2.95 1.098 4.243 1.811 6.187 4.187-1.188 1.563-1.188 1.563-3 3-3.48-.261-5.051-1.034-8-3l-3 1 1.563 1.813L180 222l-1 3c-2.063.688-2.063.688-4 1a916.394 916.394 0 0 1-5.563-8.75l-1.615-2.5-1.513-2.422-1.413-2.222C164 208 164 208 164.16 205.87c2.506-5.58 9.455-6.683 14.84-5.87zm-7 5-1 3c1.372 2.677 1.372 2.677 3 5l3-1c.924-1.862.924-1.862 1-4l-2-3h-4zM107 0h7a860.781 860.781 0 0 1-2.625 13.375l-.715 3.852-.762 3.671-.666 3.396C108 27 108 27 105.006 28.381 102 29 102 29 100 29c-1.84-4.122-3.67-8.248-5.5-12.375l-1.59-3.563-1.504-3.398-1.396-3.142C89 4 89 4 89 2h7l7 18 4-20z" fill="#EFEFEF"/><path d="m135 213 3 1c-.803 7.25-6.721 12.322-12.152 16.758-1.581 1.131-3.21 2.196-4.848 3.242 3.978.733 3.978.733 8 1l1-7h9v4h-5l-.188 2.313C133 237 133 237 130.938 238.813 127.135 240.35 124.04 240.83 120 240c-3-1.875-3-1.875-5-5-.847-4.642-.88-8.523 1.563-12.625 3.287-1.854 5.717-1.646 9.437-1.375h3c1.688-1.764 1.688-1.764 3.188-4l1.605-2.25L135 213zm-15 12-1 4c3.122-1.309 3.122-1.309 5-4h-4z" fill="#EDEDED"/><path d="m48 193 4 2c-.69 4.955-2.782 7.788-5.723 11.719-1.48 2.644-1.524 4.298-1.277 7.281l6 1 .805-2.2c1.196-2.802 2.598-5.105 4.32-7.613l1.633-2.394L59 201l5 2c-1.428 4.063-3.396 7.219-5.938 10.688l-2.09 2.886C54 219 54 219 51 221c-3.903-.145-6.467-.699-9.875-2.625-2.09-2.335-3.256-4.008-3.531-7.176C38.828 204.516 43.913 198.286 48 193z" fill="#EFEFEF"/><path d="M192 185c4.974 1.734 9.315 4.433 13.813 7.125l2.388 1.418c1.935 1.15 3.868 2.302 5.799 3.457l-3 4-3.313-.688c-3.518-.633-3.518-.633-5.687.75-1.472 2.852-.741 4.905 0 7.938l-4 3-10-22 4-5zm3 7 2 7 4-2v-2l-6-3zM220 141l5 1-3 9 4 2 2-7 5 2-3 8 5 1 3-9 4 1c-.568 5.54-2.629 10.037-5 15a233.35 233.35 0 0 1-15.5-5.5l-3.094-1.219C216 156 216 156 215 153c.996-2.918.996-2.918 2.438-6.188l1.433-3.292L220 141zM104 215c2.438 1 2.438 1 4 2l-1 5-9-2c1.335 4.006 3.528 4.757 7 7 1.42 2.84 1.315 4.855 1 8-1.5 2.375-1.5 2.375-4 4-4.98.474-8.462.269-13-2l2-6 2.813 1.563c3.115 1.838 3.115 1.838 6.187.437l-2.313-2.313L95 228l-1.875-1.375C92 225 92 225 92.062 221.5c.938-3.5.938-3.5 2.563-5.438 3.288-1.47 5.81-1.38 9.375-1.062zM243.5 101.188c2.675.869 3.764 1.642 5.5 3.812 1.512 3.024 1.173 5.662 1 9-1 2.438-1 2.438-2 4l-5-1 1-9h-2c-1.144 1.77-1.144 1.77-2.25 3.938-1.842 3.049-2.36 3.9-5.75 5.312-3.943-.329-5.368-1.317-8-4.25-1.184-3.976-1.055-7.013 0-11h6l-1 8c4.014-1.338 4.73-3.524 7-7 3-2 3-2 5.5-1.813zM212 160c3.752 3.63 7.136 7.407 10.375 11.5l1.402 1.684c2.05 2.6 3.215 4.235 3.262 7.597C226 183 226 183 224.26 184.222c-3.007 1.035-4.47.451-7.463-.558l-2.969-.976-3.078-1.063-3.125-1.04A787.415 787.415 0 0 1 200 178l3-5c1.709.456 3.417.915 5.125 1.375l2.883.773c3.024.861 6.009 1.858 8.992 2.852l-11-13 3-5zM18 156a87.52 87.52 0 0 1 4.25 6.25l1.18 1.777c1.086 1.739 1.086 1.739 2.57 4.973-.766 2.422-.766 2.422-2 4-3-1-3-1-5-4l-3.21 1.969-4.165 2.531-2.117 1.3C4.227 178 4.227 178 2 178l-2-5c2.288-1.506 4.58-3.005 6.875-4.5l1.973-1.3C13.773 164 13.773 164 16 164l-3-6c3-2 3-2 5-2zM158 208l1 5-5 1 6 19-6 1c-.839-2.436-1.671-4.873-2.5-7.313l-.723-2.091C149.767 221.61 149 219.173 149 216l-1.813 1C145 218 145 218 142 218v-5c2.29-.837 4.582-1.67 6.875-2.5l1.973-.723C155.773 208 155.773 208 158 208z" fill="#EEE"/><path d="M117 8c16.22.32 31.435 5.086 46 12v5l-1.646-.687C146.581 18.182 132.934 14.003 117 12V8z" fill="#E9E9E9"/><path d="M244 125c2.063.438 2.063.438 4 1a978.719 978.719 0 0 1-.438 4.25c-.08.789-.162 1.578-.246 2.39-.292 2.184-.737 4.237-1.316 6.36-5.363-.547-10.643-1.43-15.938-2.438l-2.045-.37c-1.687-.33-3.355-.754-5.017-1.192-1.245-2.49-.777-3.41 0-6 6.575.62 12.667 2.149 19 4l.438-3.438C243 126 243 126 244 125z" fill="#EDEDED"/><path d="m40 100 2 1c-.39 3.087-.816 6.169-1.25 9.25l-.332 2.645c-.946 6.521-.946 6.521-3.527 9.714L35 124c.82-16.59.82-16.59 3-23l2-1z" fill="#E2E2E2"/><path d="M130 228h9v4h-5l-1 5-4 1c-1.682-3.363.033-6.473 1-10z" fill="#E9E9E9"/><path d="M121 97h3l1 10-4 1-2 3-.375-2.938L118 105l-2-1 1-4h3l1-3z" fill="#E7E7E7"/><path d="M86 62c2.8 2.8 2.724 5.13 3 9-2 2-2 2-5 3l-2-2c.023-2.164.023-2.164.375-4.625l.336-2.477L83 63l3-1z" fill="#EAEAEA"/><path d="M150 57c5.343 2.724 8.375 5.236 12 10l2 2-2 2a5234.184 5234.184 0 0 1-5.375-4.375l-3.023-2.46C151 62 151 62 149 60l1-3z" fill="#E9E9E9"/><path d="M172 77c7 8.448 7 8.448 7 12h-2l-1 2-6-11 2-3z" fill="#E7E7E7"/><path d="m178 94 2 4-9 1-1 4-4-2c.946-2.366 1.617-3.74 3.75-5.188 2.723-.983 5.387-1.422 8.25-1.812z" fill="#E3E3E3"/><path d="m149.938 69.938 2.072.013c1.663.012 3.327.03 4.99.049v1c-2.603.53-5.207 1.05-7.813 1.563l-2.236.458c-5.224 1.017-7.464.97-11.951-2.021 5.039-.832 9.813-1.108 14.938-1.063z" fill="#DFDFDF"/><path d="m132 165 2 2-6 7-3-1c.613-2.962 1.254-4.38 3-7 2-.813 2-.813 4-1z" fill="#EAEAEA"/><path d="M38 109h1c1.202 4.929.822 8.263-1 13l-3 2c-.363-5.802.743-9.64 3-15z" fill="#F0F0F0"/><path d="m66 61 1 2-1.574 1.355C61.473 67.782 57.642 71.245 54 75l-2-1c4.286-5.09 8.196-9.663 14-13z" fill="#EAEAEA"/><path d="M39 134c2.762 2.762 2.579 5.207 3 9h-2l-1 3c-.39-1.433-.762-2.872-1.125-4.313l-.633-2.425C37 137 37 137 39 134z" fill="#E7E7E7"/><path d="m134 192-2 1 1 2-8 1v-2l-4-1c1.602-.364 3.207-.716 4.813-1.063l2.707-.597C131 191 131 191 134 192z" fill="#E2E2E2"/><path d="M116 85h5l1 4-7-1 1-3z" fill="#E3E3E3"/><path d="m92 50-2 1 2 1-1 4v-3l-5 1v-4c3-1 3-1 6 0z" fill="#DDD"/><path d="m161 101 1 4h-8v-3c3-1 3-1 7-1z" fill="#D7D7D7"/><path d="m7 87 2 1-1 6-2-2-2 2c.375-2.938.375-2.938 1-6l2-1z" fill="#E2E2E2"/><path d="m145 138 3 1v2h2c1.625 2 1.625 2 3 4l-3 1c-2.188-1.25-2.188-1.25-4-3v-3l-1-2z" fill="#DADADA"/><path d="m116 102 5 1-1 3 2 1-3 4-.375-2.938L118 105l-2-1v-2z" fill="#D7D7D7"/><path d="M117 8h7c-2 3-2 3-4.625 3.688L117 12V8z" fill="#F2F2F2"/><path d="m134 190 4 1-1 3h-6l1-2h2v-2z" fill="#F1F1F1"/><path d="m159 64 5 5-2 2-6-5 3-2z" fill="#D7D7D7"/></svg>