<?xml version="1.0" encoding="UTF-8"?>
<svg version="1.1" xmlns="http://www.w3.org/2000/svg" width="241" height="251">
<path d="M0 0 C-1.40398279 4.10110762 -3.37087038 6.98089159 -6.125 10.3125 C-6.84945312 11.19550781 -7.57390625 12.07851563 -8.3203125 12.98828125 C-9.15175781 13.98408203 -9.15175781 13.98408203 -10 15 C-14.15780731 13.65555931 -18.19916218 12.13629902 -22.25 10.5 C-45.95465581 1.42389305 -74.13502422 3.66465354 -97.19140625 13.7890625 C-105.96030317 17.85679904 -113.52273047 22.85875911 -121 29 C-121.71414062 29.55042969 -122.42828125 30.10085937 -123.1640625 30.66796875 C-140.44250489 44.60774797 -152.04008705 68.22845281 -155 90 C-155.28993423 94.39989141 -155.33390486 98.77903011 -155.3125 103.1875 C-155.30758545 104.38205811 -155.3026709 105.57661621 -155.29760742 106.80737305 C-155.18148966 115.56622547 -154.50586106 123.56292749 -152 132 C-151.6596875 133.14855469 -151.319375 134.29710937 -150.96875 135.48046875 C-146.44473214 149.2512123 -139.78632917 161.28565686 -130 172 C-128.97132813 173.15048828 -128.97132813 173.15048828 -127.921875 174.32421875 C-114.65838818 188.39825199 -97.64446046 197.29156392 -79 202 C-78.10796875 202.22558594 -77.2159375 202.45117188 -76.296875 202.68359375 C-49.42538419 208.24983113 -21.69457793 201.89331677 1 187 C23.21731285 170.74201846 38.24633616 147.84989178 42.77734375 120.59765625 C46.5047022 94.79721453 41.98739376 67.99683246 26.3203125 46.71875 C25.66675781 45.86796875 25.66675781 45.86796875 25 45 C26.55833192 41.5442173 28.60010445 38.72724126 30.9375 35.75 C31.62714844 34.85796875 32.31679687 33.9659375 33.02734375 33.046875 C34.00380859 32.03367187 34.00380859 32.03367187 35 31 C35.99 31 36.98 31 38 31 C39.58079865 33.01582463 40.91626184 34.95239872 42.25 37.125 C42.64477539 37.75736572 43.03955078 38.38973145 43.44628906 39.04125977 C60.90986119 67.48122962 66.81507743 99.37211279 60 132 C55.29452612 150.61516969 47.24478344 166.3215898 35 181 C34.26910156 181.88429687 33.53820312 182.76859375 32.78515625 183.6796875 C13.95327967 205.54237243 -13.51394254 219.25024789 -42 223 C-75.29291792 225.30281953 -106.05313834 217.42369253 -132 196 C-132.97453125 195.20207031 -133.9490625 194.40414062 -134.953125 193.58203125 C-148.24837953 182.07919978 -158.01464451 168.06889207 -165 152 C-165.47953125 150.93652344 -165.9590625 149.87304688 -166.453125 148.77734375 C-172.54450823 134.26443972 -174.37427513 119.89169259 -174.4375 104.25 C-174.4475708 102.97205566 -174.4576416 101.69411133 -174.46801758 100.37744141 C-174.18036737 68.62983445 -159.84414435 40.16280396 -137.58374023 18.09960938 C-101.35182733 -16.43551882 -43.77116941 -24.41896428 0 0 Z " fill="#0CBF68" transform="translate(174,28)"/>
<path d="M0 0 C0.48083647 5.84289162 -0.41630514 8.37925093 -4.125 12.875 C-4.78737671 13.69303101 -4.78737671 13.69303101 -5.46313477 14.52758789 C-6.95885407 16.36600674 -8.47869349 18.18271584 -10 20 C-11.1328259 21.37521952 -12.26429341 22.75155892 -13.39453125 24.12890625 C-15.17553884 26.29673454 -16.95846514 28.46281933 -18.74780273 30.6237793 C-23.84046415 36.77519459 -28.79048179 43.027555 -33.6953125 49.32910156 C-34.97805353 50.97189341 -36.26866216 52.60812553 -37.5625 54.2421875 C-53.8211843 74.789748 -69.58084355 95.75190887 -84.6953125 117.15625 C-86.06192238 119.08750708 -87.43736254 121.01230756 -88.8125 122.9375 C-98.9257921 137.17586676 -108.55452315 151.73984555 -118.21838379 166.28486633 C-119.28449164 167.88903041 -120.3514563 169.49262541 -121.41931152 171.09562683 C-123.91730462 174.84829817 -126.40004141 178.60897577 -128.84570312 182.39599609 C-129.29258484 183.082155 -129.73946655 183.7683139 -130.19989014 184.4752655 C-131.02485113 185.74303788 -131.84349669 187.01495488 -132.65411377 188.29194641 C-136.04207744 193.47452496 -139.94870354 197.32950126 -146 199 C-149.13016294 199.27579835 -152.23453502 199.27916841 -155.375 199.25 C-156.2 199.25773438 -157.025 199.26546875 -157.875 199.2734375 C-162.88352234 199.25753743 -167.29152956 198.89886482 -172 197 C-180.84452266 187.8071154 -184.40514325 171.05568604 -188.25 159.1875 C-188.59144043 158.13812256 -188.93288086 157.08874512 -189.28466797 156.00756836 C-195.0785076 137.75942488 -195.0785076 137.75942488 -193 129 C-189.22200615 122.38851076 -181.15676118 117.83362746 -174.04296875 115.4765625 C-170.28073548 114.59894786 -166.81290543 114.26815635 -163 115 C-157.12999445 118.73545808 -155.40170816 125.7754546 -153 132 C-152.00152559 134.57202787 -150.9769584 137.13179458 -149.9375 139.6875 C-149.47214844 140.86699219 -149.00679687 142.04648438 -148.52734375 143.26171875 C-147.29199028 146.14537103 -147.29199028 146.14537103 -144.81640625 146.89453125 C-144.21699219 146.92933594 -143.61757812 146.96414062 -143 147 C-137.67761032 139.12239227 -132.46913978 131.1917606 -127.4375 123.125 C-119.96278674 111.18953114 -111.99399747 99.59157827 -104 88 C-103.37270996 87.09008301 -102.74541992 86.18016602 -102.09912109 85.24267578 C-87.2492774 63.752756 -71.63340029 42.95854905 -55.05859375 22.7734375 C-53.18310107 20.48174592 -51.35870851 18.16967472 -49.59765625 15.7890625 C-41.65056148 5.29832256 -32.6349813 0.58343214 -19.69921875 -1.5703125 C-5.48099358 -3.22184869 -5.48099358 -3.22184869 0 0 Z " fill="#06BF64" transform="translate(241,2)"/>
<path d="M0 0 C0 0.33 0 0.66 0 1 C-0.95519531 1.09796875 -1.91039062 1.1959375 -2.89453125 1.296875 C-10.2661781 2.14942837 -16.80351436 3.27792827 -23.73046875 6.09765625 C-26 7 -26 7 -28.1171875 7.48046875 C-33.13416366 8.86482109 -37.47819871 14.38789611 -41 18 C-41.886875 18.845625 -42.77375 19.69125 -43.6875 20.5625 C-45.74960129 22.73606622 -46.72711531 24.36331029 -48 27 C-48.99 27.66 -49.98 28.32 -51 29 C-52.19232613 31.05003955 -52.19232613 31.05003955 -53 33 C-53.66 33 -54.32 33 -55 33 C-55 33.99 -55 34.98 -55 36 C-56.32 36 -57.64 36 -59 36 C-56.95189802 31.37836673 -53.70882839 27.85744421 -50.484375 24.01171875 C-48.88518177 22.07307412 -47.32864506 20.09801774 -45.828125 18.08203125 C-37.78042363 7.43498108 -28.82914664 2.64142678 -15.71484375 0.421875 C-10.45181816 -0.17581876 -5.28650114 -0.26580173 0 0 Z " fill="#57CD96" transform="translate(237,0)"/>
<path d="M0 0 C1 2 1 2 0.3125 5 C-1 8 -1 8 -3.125 9.375 C-3.74375 9.58125 -4.3625 9.7875 -5 10 C-5.04241723 12.33294775 -5.04092937 14.66702567 -5 17 C-4.67 17.33 -4.34 17.66 -4 18 C-3.92794489 19.68608966 -3.91613932 21.37500659 -3.9375 23.0625 C-3.94652344 23.98160156 -3.95554687 24.90070313 -3.96484375 25.84765625 C-3.97644531 26.55792969 -3.98804688 27.26820313 -4 28 C-7.38248454 22.92627319 -8.37096481 16.75441839 -7.875 10.6875 C-6.61818266 5.39091262 -4.46657594 2.97771729 0 0 Z " fill="#5ACC96" transform="translate(55,124)"/>
<path d="M0 0 C0.76957031 0.144375 1.53914063 0.28875 2.33203125 0.4375 C15.50159026 2.56591358 28.6943418 2.18848595 42 2 C41.67 2.66 41.34 3.32 41 4 C36.42847075 4.02485982 31.85698153 4.04293526 27.28540039 4.05493164 C25.73265904 4.05993684 24.17992234 4.06674301 22.62719727 4.07543945 C20.38556768 4.08767307 18.14400082 4.09326657 15.90234375 4.09765625 C14.87378517 4.10539818 14.87378517 4.10539818 13.82444763 4.11329651 C9.43608179 4.1137986 5.31598155 3.70910669 1 3 C0.67 2.01 0.34 1.02 0 0 Z " fill="#5BCA95" transform="translate(92,230)"/>
<path d="M0 0 C0.99 0.33 1.98 0.66 3 1 C1.19315697 3.83697878 -0.62139338 6.66894408 -2.4375 9.5 C-2.95376953 10.31082031 -3.47003906 11.12164062 -4.00195312 11.95703125 C-4.49501953 12.72402344 -4.98808594 13.49101562 -5.49609375 14.28125 C-5.95169678 14.99345703 -6.4072998 15.70566406 -6.87670898 16.43945312 C-7.24739502 16.95443359 -7.61808105 17.46941406 -8 18 C-8.33 18 -8.66 18 -9 18 C-9.49295775 11.5915493 -9.49295775 11.5915493 -7.125 8.75 C-6.42375 8.1725 -5.7225 7.595 -5 7 C-4.34 6.01 -3.68 5.02 -3 4 C-2.01 3.67 -1.02 3.34 0 3 C0 2.01 0 1.02 0 0 Z " fill="#43C687" transform="translate(133,147)"/>
<path d="M0 0 C1.32 0.33 2.64 0.66 4 1 C2.25330507 3.25263415 0.50280503 5.5021279 -1.25 7.75 C-1.74113281 8.38421875 -2.23226562 9.0184375 -2.73828125 9.671875 C-5.32812447 12.98687432 -7.93052932 16.10592764 -11 19 C-10.125 14.25 -10.125 14.25 -9 12 C-8.34 12 -7.68 12 -7 12 C-6.67 10.68 -6.34 9.36 -6 8 C-5.01 8 -4.02 8 -3 8 C-3 6.35 -3 4.7 -3 3 C-2.01 3 -1.02 3 0 3 C0 2.01 0 1.02 0 0 Z " fill="#40C687" transform="translate(230,17)"/>
<path d="M0 0 C0.66 1.32 1.32 2.64 2 4 C1.34 4 0.68 4 0 4 C-0.1546875 4.9590625 -0.1546875 4.9590625 -0.3125 5.9375 C-0.539375 6.618125 -0.76625 7.29875 -1 8 C-1.99 8.33 -2.98 8.66 -4 9 C-4 10.32 -4 11.64 -4 13 C-4.99 13 -5.98 13 -7 13 C-7.0825 13.61875 -7.165 14.2375 -7.25 14.875 C-8 17 -8 17 -10.0625 18.25 C-10.701875 18.4975 -11.34125 18.745 -12 19 C-10.42686828 14.27156386 -7.79358765 10.6566157 -4.875 6.6875 C-4.17310547 5.71973633 -4.17310547 5.71973633 -3.45703125 4.73242188 C-2.3094071 3.15151106 -1.15534523 1.57527699 0 0 Z " fill="#51CB8F" transform="translate(155,64)"/>
<path d="M0 0 C0.99 0.33 1.98 0.66 3 1 C1.63016497 4.16115776 1.0109362 4.9927092 -2 7 C-3.19232613 9.05003955 -3.19232613 9.05003955 -4 11 C-4.66 11 -5.32 11 -6 11 C-6 11.99 -6 12.98 -6 14 C-7.32 14 -8.64 14 -10 14 C-8.43632643 10.47761953 -6.30504111 7.72876006 -3.875 4.75 C-3.15054688 3.85796875 -2.42609375 2.9659375 -1.6796875 2.046875 C-0.84824219 1.03367187 -0.84824219 1.03367187 0 0 Z " fill="#37C382" transform="translate(188,22)"/>
<path d="M0 0 C0.66 0.33 1.32 0.66 2 1 C0.63125844 7.95776959 -1.4533129 14.38603107 -4 21 C-4.66 19.68 -5.32 18.36 -6 17 C-5.34 16.67 -4.68 16.34 -4 16 C-4.061875 14.700625 -4.061875 14.700625 -4.125 13.375 C-3.99542279 9.87641532 -3.23980344 7.25448403 -2 4 C-1.34 4 -0.68 4 0 4 C0 2.68 0 1.36 0 0 Z " fill="#42C487" transform="translate(231,160)"/>
<path d="M0 0 C0.99 0.33 1.98 0.66 3 1 C1.37815499 4.58513106 -0.79256239 7.58992323 -3.125 10.75 C-3.84945312 11.73484375 -4.57390625 12.7196875 -5.3203125 13.734375 C-5.87460938 14.48203125 -6.42890625 15.2296875 -7 16 C-9 13 -9 13 -8.625 10.8125 C-8.41875 10.214375 -8.2125 9.61625 -8 9 C-7.01 9 -6.02 9 -5 9 C-5 8.34 -5 7.68 -5 7 C-4.34 7 -3.68 7 -3 7 C-3 6.01 -3 5.02 -3 4 C-2.01 3.34 -1.02 2.68 0 2 C0 1.34 0 0.68 0 0 Z " fill="#33C380" transform="translate(194,62)"/>
<path d="M0 0 C1.65 0 3.3 0 5 0 C1.22439544 3.25061573 -2.73089425 5.57990776 -7.1875 7.75 C-8.13012695 8.22373047 -8.13012695 8.22373047 -9.09179688 8.70703125 C-13.73232887 11 -13.73232887 11 -16 11 C-16.33 9.68 -16.66 8.36 -17 7 C-14.36 7 -11.72 7 -9 7 C-9 6.34 -9 5.68 -9 5 C-5.91190305 3.23537317 -4.76687864 3 -1 3 C-0.67 2.01 -0.34 1.02 0 0 Z " fill="#48C78C" transform="translate(177,232)"/>
<path d="M0 0 C0.33 0 0.66 0 1 0 C1.25 2.3125 1.25 2.3125 1 5 C-0.9375 6.625 -0.9375 6.625 -3 8 C-3.33 8.99 -3.66 9.98 -4 11 C-4.66 11 -5.32 11 -6 11 C-6.33 12.32 -6.66 13.64 -7 15 C-8.32 15.33 -9.64 15.66 -11 16 C-9.31991577 12.21751528 -6.92161446 9.0307578 -4.4375 5.75 C-4.02564453 5.19570313 -3.61378906 4.64140625 -3.18945312 4.0703125 C-2.15306751 2.69298825 -1.07961421 1.3437077 0 0 Z " fill="#40C588" transform="translate(175,38)"/>
<path d="M0 0 C0.33 0 0.66 0 1 0 C0.91890252 3.08439243 0.80608311 6.16683912 0.6875 9.25 C0.66494141 10.12269531 0.64238281 10.99539062 0.61914062 11.89453125 C0.28449417 19.86520127 0.28449417 19.86520127 -3 23 C-3.48350422 15.10276444 -1.67664721 7.66467297 0 0 Z " fill="#42C889" transform="translate(3,102)"/>
<path d="M0 0 C4.69023454 0.56606279 9.34500026 1.18537505 14 2 C14 2.66 14 3.32 14 4 C15.175625 3.9071875 15.175625 3.9071875 16.375 3.8125 C17.674375 3.9053125 17.674375 3.9053125 19 4 C19.99 5.485 19.99 5.485 21 7 C15.85404946 6.42381249 11.44921945 5.25256722 6.5625 3.4375 C5.32628906 2.98246094 4.09007813 2.52742187 2.81640625 2.05859375 C1.88699219 1.70925781 0.95757812 1.35992187 0 1 C0 0.67 0 0.34 0 0 Z " fill="#4DCA8F" transform="translate(71,241)"/>
<path d="M0 0 C3.63955293 0.88966849 5.53646651 1.37662737 7.8125 4.4375 C9 7 9 7 10 10 C10.66 10.33 11.32 10.66 12 11 C11.34 11.66 10.68 12.32 10 13 C8.32722165 11.21371169 6.66175557 9.4214925 5 7.625 C4.28457031 6.86316406 4.28457031 6.86316406 3.5546875 6.0859375 C0 2.2265625 0 2.2265625 0 0 Z " fill="#42C689" transform="translate(25,205)"/>
<path d="M0 0 C1.26328125 0.01804688 2.5265625 0.03609375 3.828125 0.0546875 C4.79234375 0.07789062 5.7565625 0.10109375 6.75 0.125 C7.08 1.115 7.41 2.105 7.75 3.125 C6.76 3.125 5.77 3.125 4.75 3.125 C4.75 3.785 4.75 4.445 4.75 5.125 C4.09 5.125 3.43 5.125 2.75 5.125 C2.75 4.465 2.75 3.805 2.75 3.125 C-4.18 2.63 -4.18 2.63 -11.25 2.125 C-6.91061709 -0.04469145 -4.76609592 -0.08826104 0 0 Z " fill="#20B46E" transform="translate(233.25,0.875)"/>
<path d="M0 0 C0.85801675 3.12006093 1.15565178 4.91826192 0 8 C-1.4375 10.25 -1.4375 10.25 -3 12 C-3.66 12 -4.32 12 -5 12 C-5 12.66 -5 13.32 -5 14 C-5.66 14 -6.32 14 -7 14 C-5.53967505 8.68972746 -3.01679014 4.53669968 0 0 Z " fill="#29BF78" transform="translate(19,67)"/>
<path d="M0 0 C2.33088789 2.87854637 3.83224797 5.61984828 5.1875 9.0625 C5.53167969 9.91972656 5.87585938 10.77695313 6.23046875 11.66015625 C7 14 7 14 7 17 C6.01 17.33 5.02 17.66 4 18 C4 16.35 4 14.7 4 13 C3.34 12.67 2.68 12.34 2 12 C0.73238238 7.70418473 0 4.49055702 0 0 Z " fill="#46C78B" transform="translate(223,78)"/>
<path d="M0 0 C0.99 0 1.98 0 3 0 C1.59422879 3.01527738 -0.06126148 5.5947941 -2.0625 8.25 C-2.58972656 8.95640625 -3.11695313 9.6628125 -3.66015625 10.390625 C-4.10230469 10.92171875 -4.54445312 11.4528125 -5 12 C-5.33 12 -5.66 12 -6 12 C-6.25 8.6875 -6.25 8.6875 -6 5 C-4.125 3.0625 -4.125 3.0625 -2 2 C-1.34 2 -0.68 2 0 2 C0 1.34 0 0.68 0 0 Z " fill="#41C78A" transform="translate(41,64)"/>
<path d="M0 0 C1.32 0.33 2.64 0.66 4 1 C3.02526874 2.66926454 2.04510211 4.33535642 1.0625 6 C0.24458984 7.3921875 0.24458984 7.3921875 -0.58984375 8.8125 C-1.05519531 9.534375 -1.52054687 10.25625 -2 11 C-2.33 11 -2.66 11 -3 11 C-3.36923077 4.6 -3.36923077 4.6 -1.5 1.5625 C-1.005 1.046875 -0.51 0.53125 0 0 Z " fill="#39C683" transform="translate(108,183)"/>
<path d="M0 0 C1.32 0.66 2.64 1.32 4 2 C3.01 3.32 2.02 4.64 1 6 C-2.91211733 4.84414715 -5.8745041 3.64465038 -9 1 C-6.03 1.33 -3.06 1.66 0 2 C0 1.34 0 0.68 0 0 Z " fill="#52CA92" transform="translate(163,37)"/>
<path d="M0 0 C0.99 0 1.98 0 3 0 C1.23867546 4.00301032 -1.26132483 7.6028977 -4 11 C-4.33 11 -4.66 11 -5 11 C-5 9.02 -5 7.04 -5 5 C-3.68 4.67 -2.36 4.34 -1 4 C-0.67 2.68 -0.34 1.36 0 0 Z " fill="#46C78D" transform="translate(181,80)"/>
<path d="M0 0 C1.98 0.66 3.96 1.32 6 2 C6 1.34 6 0.68 6 0 C7.32 0 8.64 0 10 0 C10 0.66 10 1.32 10 2 C5.05 4.475 5.05 4.475 0 7 C0 6.01 0 5.02 0 4 C0.66 3.67 1.32 3.34 2 3 C1.34 2.67 0.68 2.34 0 2 C0 1.34 0 0.68 0 0 Z " fill="#3BC584" transform="translate(64,41)"/>
<path d="M0 0 C5.75 0.875 5.75 0.875 8 2 C8 2.99 8 3.98 8 5 C9.32 5.66 10.64 6.32 12 7 C10.265625 7.7109375 10.265625 7.7109375 8 8 C5.859375 6.6015625 5.859375 6.6015625 3.75 4.625 C3.04359375 3.97789062 2.3371875 3.33078125 1.609375 2.6640625 C0 1 0 1 0 0 Z " fill="#43C68A" transform="translate(36,218)"/>
<path d="M0 0 C7.48291572 6.15034169 7.48291572 6.15034169 10 10 C8.35 10 6.7 10 5 10 C5 8.68 5 7.36 5 6 C3.68 5.67 2.36 5.34 1 5 C0.67 3.35 0.34 1.7 0 0 Z " fill="#46C98C" transform="translate(40,197)"/>
<path d="M0 0 C1 3 1 3 0.375 5.625 C-1 8 -1 8 -3.625 8.8125 C-4.800625 8.9053125 -4.800625 8.9053125 -6 9 C-4.47291037 5.56404834 -2.40072955 2.88087546 0 0 Z " fill="#3FC887" transform="translate(29,54)"/>
<path d="M0 0 C0 0.66 0 1.32 0 2 C0.66 2 1.32 2 2 2 C2 2.66 2 3.32 2 4 C-2.04141194 4.63394697 -5.9065307 5.12404452 -10 5 C-3.63636364 0 -3.63636364 0 0 0 Z " fill="#2FC37C" transform="translate(68,26)"/>
<path d="M0 0 C0.33 0.66 0.66 1.32 1 2 C-0.07674702 4.28258633 -1.19546116 6.4356434 -2.4375 8.625 C-2.77587891 9.23601562 -3.11425781 9.84703125 -3.46289062 10.4765625 C-4.30146192 11.988353 -5.14982577 13.49470399 -6 15 C-6.33 15 -6.66 15 -7 15 C-7 13.35 -7 11.7 -7 10 C-6.01 9.67 -5.02 9.34 -4 9 C-4 7.68 -4 6.36 -4 5 C-3.34 5 -2.68 5 -2 5 C-2 3.68 -2 2.36 -2 1 C-1.34 0.67 -0.68 0.34 0 0 Z " fill="#5ACD98" transform="translate(225,181)"/>
<path d="M0 0 C4.95 1.65 9.9 3.3 15 5 C15 5.33 15 5.66 15 6 C4.44191344 5.22095672 4.44191344 5.22095672 0 3 C0 2.01 0 1.02 0 0 Z " fill="#4FC990" transform="translate(76,224)"/>
<path d="M0 0 C1 2 1 2 0.375 5 C-1 8 -1 8 -3.625 9.375 C-4.40875 9.58125 -5.1925 9.7875 -6 10 C-4.52307692 3.47692308 -4.52307692 3.47692308 -1.875 1.0625 C-1.25625 0.711875 -0.6375 0.36125 0 0 Z " fill="#34C282" transform="translate(55,124)"/>
<path d="M0 0 C0.86625 0.3403125 0.86625 0.3403125 1.75 0.6875 C-1.875 5.5625 -1.875 5.5625 -5.25 6.6875 C-5.58 5.3675 -5.91 4.0475 -6.25 2.6875 C-2.80384615 -0.38942308 -2.80384615 -0.38942308 0 0 Z " fill="#04BB62" transform="translate(189.25,207.3125)"/>
<path d="M0 0 C0.99 0.33 1.98 0.66 3 1 C2.34 5.29 1.68 9.58 1 14 C0.67 14 0.34 14 0 14 C0 9.38 0 4.76 0 0 Z " fill="#4AC88D" transform="translate(18,104)"/>
<path d="M0 0 C0.99 0 1.98 0 3 0 C1.22054913 4.04420651 -1.39529673 7.46078487 -4 11 C-4.33 9.68 -4.66 8.36 -5 7 C-4.34 7 -3.68 7 -3 7 C-2.690625 6.21625 -2.38125 5.4325 -2.0625 4.625 C-1 2 -1 2 0 0 Z " fill="#4EC991" transform="translate(172,92)"/>
<path d="M0 0 C0.85178626 2.38500154 1.09806909 3.6665651 0.375 6.125 C-1.41247034 8.56245955 -3.1632534 9.10418528 -6 10 C-5.18957164 8.51969728 -4.37659652 7.04078858 -3.5625 5.5625 C-2.88380859 4.32693359 -2.88380859 4.32693359 -2.19140625 3.06640625 C-1 1 -1 1 0 0 Z " fill="#49C88B" transform="translate(204,184)"/>
<path d="M0 0 C1 2 1 2 0.0625 5.125 C-0.288125 6.07375 -0.63875 7.0225 -1 8 C-1.66 8 -2.32 8 -3 8 C-3 8.66 -3 9.32 -3 10 C-3.99 10.33 -4.98 10.66 -6 11 C-4.54955729 6.89041233 -2.48889248 3.56741255 0 0 Z " fill="#4ECA8F" transform="translate(117,120)"/>
<path d="M0 0 C1.32 0.33 2.64 0.66 4 1 C1.03 4.96 1.03 4.96 -2 9 C-2.66 8.67 -3.32 8.34 -4 8 C-4 7.01 -4 6.02 -4 5 C-3.01 5 -2.02 5 -1 5 C-0.67 3.35 -0.34 1.7 0 0 Z " fill="#4CC88E" transform="translate(157,112)"/>
<path d="M0 0 C-0.61538462 6.52307692 -0.61538462 6.52307692 -2.5625 8.9375 C-3.036875 9.288125 -3.51125 9.63875 -4 10 C-4.36814024 3.49618902 -4.36814024 3.49618902 -2.5625 1.0625 C-1 0 -1 0 0 0 Z " fill="#2FC37B" transform="translate(128,155)"/>
<path d="M0 0 C1.72357119 2.58535679 2.44735018 4.03811614 3.1875 6.9375 C3.36667969 7.60652344 3.54585937 8.27554688 3.73046875 8.96484375 C4.03268678 11.24680888 3.68756692 12.82026659 3 15 C0.73045369 11.59568053 0.63450051 9.83475798 0.375 5.8125 C0.30023438 4.72582031 0.22546875 3.63914062 0.1484375 2.51953125 C0.09945312 1.68808594 0.05046875 0.85664062 0 0 Z " fill="#53CA93" transform="translate(230,95)"/>
<path d="M0 0 C1.32 0.66 2.64 1.32 4 2 C1.69 3.65 -0.62 5.3 -3 7 C-2.25 2.25 -2.25 2.25 0 0 Z " fill="#3FC787" transform="translate(196,217)"/>
<path d="M0 0 C0.33 0 0.66 0 1 0 C1.36463732 1.74784829 1.7163078 3.49840502 2.0625 5.25 C2.25972656 6.22453125 2.45695312 7.1990625 2.66015625 8.203125 C2.98397535 10.868119 2.85503199 12.48871723 2 15 C-0.35119399 11.47320901 -0.21443452 9.97120515 -0.125 5.8125 C-0.10695313 4.72582031 -0.08890625 3.63914063 -0.0703125 2.51953125 C-0.04710938 1.68808594 -0.02390625 0.85664063 0 0 Z " fill="#69D09E" transform="translate(18,145)"/>
<path d="M0 0 C0.33 0 0.66 0 1 0 C1 1.98 1 3.96 1 6 C-0.98 6.99 -2.96 7.98 -5 9 C-3.75471468 5.55151758 -2.38532951 2.80016942 0 0 Z " fill="#48C78B" transform="translate(123,111)"/>
<path d="M0 0 C0.33 0 0.66 0 1 0 C1 3.3 1 6.6 1 10 C0.01 10 -0.98 10 -2 10 C-1.54177532 6.53058454 -1.10868317 3.32604951 0 0 Z " fill="#48C98D" transform="translate(6,92)"/>
<path d="M0 0 C0.99 0.33 1.98 0.66 3 1 C2.02526874 2.66926454 1.04510211 4.33535642 0.0625 6 C-0.75541016 7.3921875 -0.75541016 7.3921875 -1.58984375 8.8125 C-2.05519531 9.534375 -2.52054688 10.25625 -3 11 C-3.33 11 -3.66 11 -4 11 C-4 9.35 -4 7.7 -4 6 C-3.34 6 -2.68 6 -2 6 C-1.7834375 5.071875 -1.7834375 5.071875 -1.5625 4.125 C-1 2 -1 2 0 0 Z " fill="#53C890" transform="translate(31,78)"/>
<path d="M0 0 C1 2 1 2 0.375 3.9375 C-1.3792518 6.5688777 -3.16320216 7.65252103 -6 9 C-6.66 8.67 -7.32 8.34 -8 8 C-5.36 5.36 -2.72 2.72 0 0 Z " fill="#5BCF97" transform="translate(191,201)"/>
<path d="M0 0 C0.99 0.33 1.98 0.66 3 1 C1.55746343 4.36591866 -0.33264727 6.51047079 -3 9 C-3.1875 6.625 -3.1875 6.625 -3 4 C-2.01 3.34 -1.02 2.68 0 2 C0 1.34 0 0.68 0 0 Z " fill="#45CA8D" transform="translate(194,62)"/>
<path d="M0 0 C2.92824652 0.97608217 4.61426621 2.10786631 7 4 C5.375 4.6875 5.375 4.6875 3 5 C-0.25 3.5625 -0.25 3.5625 -3 2 C-2.01 1.34 -1.02 0.68 0 0 Z " fill="#34C381" transform="translate(62,234)"/>
<path d="M0 0 C2.97 0 5.94 0 9 0 C8.67 0.66 8.34 1.32 8 2 C7.34 1.67 6.68 1.34 6 1 C6.33 2.32 6.66 3.64 7 5 C3.34683329 3.75023244 2.21934164 3.32901247 0 0 Z " fill="#3AC584" transform="translate(46,226)"/>
<path d="M0 0 C0.309375 0.639375 0.61875 1.27875 0.9375 1.9375 C1.8345163 3.93610821 1.8345163 3.93610821 3 5 C3.04092937 7.33297433 3.04241723 9.66705225 3 12 C0.52075165 8.28112748 -0.08484002 5.36460914 -1 1 C-0.67 0.67 -0.34 0.34 0 0 Z " fill="#4EC88E" transform="translate(54,159)"/>
<path d="M0 0 C2.45823172 3.68734758 3.01242616 6.69699971 4 11 C2 10 2 10 0 8 C-0.36933645 5.24627091 -0.18336678 2.79634339 0 0 Z " fill="#58CF98" transform="translate(85,128)"/>
<path d="M0 0 C0.99 0.33 1.98 0.66 3 1 C3 1.99 3 2.98 3 4 C3.99 4.33 4.98 4.66 6 5 C6 6.65 6 8.3 6 10 C3.25722422 6.80009492 1.3697164 3.99500618 0 0 Z " fill="#58CD97" transform="translate(203,77)"/>
<path d="M0 0 C0.99 0.33 1.98 0.66 3 1 C1.25 5.875 1.25 5.875 -1 7 C-1.33 5.02 -1.66 3.04 -2 1 C-1.34 0.67 -0.68 0.34 0 0 Z " fill="#4BC68E" transform="translate(171,27)"/>
<path d="M0 0 C0.33 0.99 0.66 1.98 1 3 C-0.98 3.99 -2.96 4.98 -5 6 C-4.67 4.35 -4.34 2.7 -4 1 C-2.68 0.67 -1.36 0.34 0 0 Z " fill="#2EBF7C" transform="translate(202,9)"/>
<path d="M0 0 C1.16945792 0.80847729 2.33550461 1.62189112 3.5 2.4375 C4.47453125 3.11619141 4.47453125 3.11619141 5.46875 3.80859375 C5.9740625 4.20175781 6.479375 4.59492188 7 5 C7 5.33 7 5.66 7 6 C5.35 6 3.7 6 2 6 C1.34 4.02 0.68 2.04 0 0 Z " fill="#4CC88E" transform="translate(50,207)"/>
<path d="M0 0 C0.99 0.33 1.98 0.66 3 1 C3 2.32 3 3.64 3 5 C3.66 5 4.32 5 5 5 C5.33 5.99 5.66 6.98 6 8 C5.01 8 4.02 8 3 8 C0 2.25 0 2.25 0 0 Z " fill="#64CF9D" transform="translate(10,181)"/>
<path d="M0 0 C-1.98 1.32 -3.96 2.64 -6 4 C-6.33 2.68 -6.66 1.36 -7 0 C-3.86650268 -1.04449911 -3.01031744 -0.93423645 0 0 Z " fill="#46C689" transform="translate(59,52)"/>
<path d="M0 0 C-0.625 1.9375 -0.625 1.9375 -2 4 C-5.125 4.75 -5.125 4.75 -8 5 C-3.16129032 0 -3.16129032 0 0 0 Z " fill="#4BCB91" transform="translate(208,5)"/>
<path d="M0 0 C2.475 0.495 2.475 0.495 5 1 C3.02 3.97 3.02 3.97 1 7 C0.31292445 4.50935112 0 2.62113708 0 0 Z " fill="#3FC687" transform="translate(209,201)"/>
<path d="M0 0 C0.33 0.99 0.66 1.98 1 3 C-0.8125 6.1875 -0.8125 6.1875 -3 9 C-3.66 9 -4.32 9 -5 9 C-3.7508258 5.54074837 -2.32472205 2.85306797 0 0 Z " fill="#50C990" transform="translate(129,102)"/>
<path d="M0 0 C0.75 1.75 0.75 1.75 1 4 C-0.9375 6.25 -0.9375 6.25 -3 8 C-3.33 7.34 -3.66 6.68 -4 6 C-2.68 4.02 -1.36 2.04 0 0 Z " fill="#54CC94" transform="translate(19,67)"/>
<path d="M0 0 C0.66 1.32 1.32 2.64 2 4 C1.34 4 0.68 4 0 4 C-0.12375 4.639375 -0.2475 5.27875 -0.375 5.9375 C-0.58125 6.618125 -0.7875 7.29875 -1 8 C-1.99 8.495 -1.99 8.495 -3 9 C-1.125 2.25 -1.125 2.25 0 0 Z " fill="#39C482" transform="translate(155,64)"/>
<path d="M0 0 C0.33 0.99 0.66 1.98 1 3 C-0.4375 5.1875 -0.4375 5.1875 -2 7 C-2.99 6.67 -3.98 6.34 -5 6 C-3.35 4.02 -1.7 2.04 0 0 Z " fill="#50C991" transform="translate(207,62)"/>
<path d="M0 0 C4.455 0.99 4.455 0.99 9 2 C8.34 2.66 7.68 3.32 7 4 C3.39075352 3.65071808 2.72887752 2.72887752 0 0 Z " fill="#51C88F" transform="translate(151,19)"/>
</svg>
